<?xml version="1.0" standalone="no"?>
<!DOCTYPE svg PUBLIC "-//W3C//DTD SVG 1.1//EN" "http://www.w3.org/Graphics/SVG/1.1/DTD/svg11.dtd" >
<svg>
<metadata>
Created by FontForge 20090914 at Thu Jul 25 14:26:28 2019
 By www-data
Copyrighted (c) 1981, 1997 by and the property of Linotype-Hell AG and/or its subsidiaries. All Rights Reserved. All Cyrillic characters designed by DoubleAlex. Helvetica is a registered Trademark of Linotype-Hell AG and/or its subsidiaries.
</metadata>
<defs>
<font id="HelveticaNeueCyr-Bold" horiz-adv-x="556" >
  <font-face 
    font-family="HelveticaNeueCyr"
    font-weight="700"
    font-stretch="normal"
    units-per-em="1000"
    panose-1="2 0 8 3 5 0 0 2 0 4"
    ascent="800"
    descent="-200"
    x-height="516"
    cap-height="712"
    bbox="-48 -214 1088 904"
    underline-thickness="50"
    underline-position="-50"
    unicode-range="U+0020-U+E001"
  />
<missing-glyph horiz-adv-x="1000" 
 />
    <glyph glyph-name=".notdef" horiz-adv-x="1000" 
 />
    <glyph glyph-name="space" unicode=" " horiz-adv-x="278" 
 />
    <glyph glyph-name="exclam" unicode="!" horiz-adv-x="278" 
d="M213 712v-190l-39 -305h-71l-39 303v192h149zM216 153v-153h-155v153h155z" />
    <glyph glyph-name="quotedbl" unicode="&#x22;" horiz-adv-x="463" 
d="M178 401h-69l-19 293h106zM354 401h-68l-19 293h106z" />
    <glyph glyph-name="numbersign" unicode="#" 
d="M157 0h-102l37 192h-89v84h105l26 141h-88v85h104l37 192h102l-37 -192h109l37 192h102l-37 -192h89v-85h-105l-26 -141h88v-84h-104l-37 -192h-102l37 192h-110zM319 276l26 141h-109l-26 -141h109z" />
    <glyph glyph-name="dollar" unicode="$" 
d="M304 789l-0.00390625 -76.002c71.333 -1.33301 127.5 -19.333 168.5 -54s61.5 -81.334 61.5 -140.001v-14h-133v7c0 59.333 -32.333 92.666 -97 99.999v-193l6 -1c34 -5.33301 64.333 -12.5 91 -21.5s52.334 -21.5 77.001 -37.5s43.834 -37.167 57.501 -63.5
s20.5 -56.833 20.5 -91.5c0 -65.333 -23.167 -118.166 -69.5 -158.499s-107.166 -61.166 -182.499 -62.499v-84h-54v84c-75.333 1.33301 -136.833 22.166 -184.5 62.499s-71.5 97.5 -71.5 171.5l1 6h142v-9c0 -76 37.667 -117 113 -123v213
c-32.667 5.33301 -61.5 12.333 -86.5 21s-49.5 20.334 -73.5 35.001s-42.333 34.334 -55 59.001s-19 53.667 -19 87c0 66 21.833 115.833 65.5 149.5s99.834 52.834 168.501 57.501v76h54zM249.996 430.998v180.001c-32 -1.33301 -57 -10 -75 -26s-27 -37 -27 -63
c0 -12 2.16699 -22.833 6.5 -32.5s9 -17.334 14 -23.001s13.167 -11 24.5 -16s20 -8.5 26 -10.5s16.333 -5 31 -9zM303.996 291.999l0.000976562 -202c33.333 0.666992 60.166 10.5 80.499 29.5s30.5 43.5 30.5 73.5c0 51.333 -37 84.333 -111 99z" />
    <glyph glyph-name="percent" unicode="%" horiz-adv-x="1000" 
d="M737 720l-393 -747h-89l394 747h88zM246 706c54 0 95.334 -16.1689 124.001 -48.502s43 -79.166 43 -140.499c0 -64.667 -14.333 -114.167 -43 -148.5s-69.667 -51.5 -123 -51.5c-54.667 0 -96.5 16.833 -125.5 50.5s-43.5 81.834 -43.5 144.501
c0 62 14.667 109.833 44 143.5s70.666 50.5 123.999 50.5zM245.001 632.998c-43.333 0 -64.9971 -41.999 -64.9971 -125.999c0 -42 5 -72.167 15 -90.5s26.333 -27.5 49 -27.5c23.333 0 40.166 10 50.499 30s15.5 52.667 15.5 98c0 15.333 -0.5 28.166 -1.5 38.499
s-3.33301 22.333 -7 36s-10.334 24 -20.001 31s-21.834 10.5 -36.501 10.5zM760.004 374.999c54 0 95.334 -16.1689 124.001 -48.502s43 -79.166 43 -140.499c0 -64.667 -14.333 -114.167 -43 -148.5s-69.667 -51.5 -123 -51.5c-54.667 0 -96.5 16.833 -125.5 50.5
s-43.5 81.834 -43.5 144.501c0 62 14.667 109.833 44 143.5s70.666 50.5 123.999 50.5zM759.005 301.997c-43.333 0 -64.9971 -41.999 -64.9971 -125.999c0 -42 5 -72.167 15 -90.5s26.333 -27.5 49 -27.5c23.333 0 40.166 10 50.499 30s15.5 52.667 15.5 98
c0 15.333 -0.5 28.166 -1.5 38.499s-3.33301 22.333 -7 36s-10.334 24 -20.001 31s-21.834 10.5 -36.501 10.5z" />
    <glyph glyph-name="ampersand" unicode="&#x26;" horiz-adv-x="685" 
d="M621 344c-8 -70.667 -30.666 -129 -67.999 -175l145 -169h-173l-59 70c-52.667 -56.667 -119 -85 -199 -85c-65.333 0 -120.5 18.833 -165.5 56.5s-67.5 88.834 -67.5 153.501c0 47.333 15 89.166 45 125.499s68.667 64.833 116 85.5c-44.667 54 -67 103.333 -67 148
c0 48.667 18.167 88.667 54.5 120s82.166 47 137.499 47c53.333 0 97.5 -16 132.5 -48s52.5 -72.333 52.5 -121c0 -76 -41.333 -136 -124 -180l92 -112c11.333 20 20 48 26 84h122zM311.001 456c26.667 16 45.668 31.6689 57.001 47.002s17 32.666 17 51.999
s-6.16699 35.166 -18.5 47.499s-27.833 18.5 -46.5 18.5s-34.334 -6 -47.001 -18s-19 -26.667 -19 -44c0 -26 19 -60.333 57 -103zM268.002 314.002c-64 -32.667 -96 -70.999 -96 -114.999c0 -26.667 9.83301 -49.334 29.5 -68.001s43.5 -28 71.5 -28
c42 0 81.333 20.667 118 62z" />
    <glyph glyph-name="quotesingle" unicode="'" horiz-adv-x="278" 
d="M172 401h-66l-21 293h108z" />
    <glyph glyph-name="parenleft" unicode="(" horiz-adv-x="296" 
d="M302 723c-38.667 -77.333 -66.833 -151.331 -84.5 -221.998s-26.5 -148.334 -26.5 -233.001c0 -146.667 37.667 -295.334 113 -446.001h-120c-41.333 62.667 -73.5 133 -96.5 211s-34.5 155.333 -34.5 232c0 80 11.167 160.833 33.5 242.5s54.833 153.5 97.5 215.5h118z
" />
    <glyph glyph-name="parenright" unicode=")" horiz-adv-x="296" 
d="M-4 723l118 -0.000976562c88.667 -136 133 -284.333 133 -445c0 -75.333 -11.667 -156.666 -35 -243.999s-55.333 -158 -96 -212h-119c40 81.333 68.5 156.5 85.5 225.5s25.5 146.5 25.5 232.5c0 161.333 -37.333 309 -112 443z" />
    <glyph glyph-name="asterisk" unicode="*" horiz-adv-x="407" 
d="M386 564l-118 -39l73 -98l-66 -49l-73 103l-71 -103l-67 49l74 98l-116 39l26 77l116 -44l-3 125h84l-4 -125l116 44z" />
    <glyph glyph-name="plus" unicode="+" horiz-adv-x="600" 
d="M246 0v209h-206v101h206v209h108v-209h206v-101h-206v-209h-108z" />
    <glyph glyph-name="comma" unicode="," horiz-adv-x="278" 
d="M218 156l-0.000976562 -126.999c0 -58 -12.833 -102.833 -38.5 -134.5s-65.5 -51.834 -119.5 -60.501v70c44.667 13.333 68.334 45.333 71.001 96h-71v156h158z" />
    <glyph glyph-name="hyphen" unicode="-" horiz-adv-x="407" 
d="M354 336v-127h-301v127h301z" />
    <glyph glyph-name="period" unicode="." horiz-adv-x="278" 
d="M218 156v-156h-158v156h158z" />
    <glyph glyph-name="slash" unicode="/" horiz-adv-x="371" 
d="M260 729h122l-272 -746h-123z" />
    <glyph glyph-name="zero" unicode="0" 
d="M279 704c38.667 0 73.165 -7.33398 103.498 -22.001s54.833 -33.667 73.5 -57s34.167 -51 46.5 -83s20.833 -64 25.5 -96s7 -65.667 7 -101c0 -111.333 -22.667 -198.666 -68 -261.999s-107.666 -95 -186.999 -95c-81.333 0 -144.833 31.5 -190.5 94.5
s-68.5 150.5 -68.5 262.5c0 44.667 4.33301 86.834 13 126.501s22.334 77.667 41.001 114s45.5 65.166 80.5 86.499s76.167 32 123.5 32zM277.998 586.999c-18.667 0 -34.999 -4 -48.999 -12s-25.167 -19.833 -33.5 -35.5s-15 -30.667 -20 -45s-8.5 -33 -10.5 -56
s-3.16699 -40.5 -3.5 -52.5s-0.5 -28 -0.5 -48c0 -156.667 39.333 -235 118 -235c77.333 0 116 80.667 116 242c0 83.333 -9.33301 144.5 -28 183.5s-48.334 58.5 -89.001 58.5z" />
    <glyph glyph-name="one" unicode="1" 
d="M396 700v-700h-151v455h-170v105h18c106 0 168 46.667 186 140h117z" />
    <glyph glyph-name="two" unicode="2" 
d="M528 123l0.00292969 -123h-513c0.666992 31.333 4.83398 60.166 12.501 86.499s16.667 48.5 27 66.5s26.166 37 47.499 57s40.166 36 56.499 48s40.166 28.667 71.499 50l32 21l36 24c6.66699 4.66699 16.667 12.834 30 24.501s22.833 21.834 28.5 30.501
s11.167 19.5 16.5 32.5s8 26.5 8 40.5c0 30.667 -9.16699 55.167 -27.5 73.5s-42.5 27.5 -72.5 27.5c-72 0 -110 -50.667 -114 -152h-136v15c0 79.333 23 142.5 69 189.5s108 70.5 186 70.5c70.667 0 128 -19.833 172 -59.5s66 -91.167 66 -154.5
c0 -51.333 -11.667 -92.333 -35 -123s-60 -63 -110 -97c-6.66699 -4.66699 -19 -12.834 -37 -24.501s-32.167 -21.167 -42.5 -28.5l-37.5 -28c-14.667 -11.333 -27.334 -22.5 -38.001 -33.5s-19.667 -22.167 -27 -33.5h331z" />
    <glyph glyph-name="three" unicode="3" 
d="M32 471c2.66699 72.667 25.332 129.833 67.999 171.5s100.667 62.5 174 62.5c69.333 0 125.5 -17.833 168.5 -53.5s64.5 -81.834 64.5 -138.501c0 -34 -8.83301 -63.5 -26.5 -88.5s-41.5 -41.5 -71.5 -49.5c38.667 -9.33301 69 -28.166 91 -56.499
s33 -63.166 33 -104.499c0 -66.667 -24.167 -121.167 -72.5 -163.5s-110.833 -63.5 -187.5 -63.5c-79.333 0 -142.333 22 -189 66s-70 103.333 -70 178v10h137c0.666992 -43.333 11.167 -76.5 31.5 -99.5s49.5 -34.5 87.5 -34.5c34.667 0 62.667 9.83301 84 29.5
s32 45.167 32 76.5c0 36.667 -11.833 63.167 -35.5 79.5s-54.167 24.5 -91.5 24.5c-14 0 -25.667 -0.333008 -35 -1v100c7.33301 -0.666992 15.333 -1 24 -1c81.333 0 122 29.333 122 88c0 26.667 -8.83301 48 -26.5 64s-41.167 24 -70.5 24
c-33.333 0 -59.166 -10.333 -77.499 -31s-27.833 -50.334 -28.5 -89.001h-135z" />
    <glyph glyph-name="four" unicode="4" 
d="M539 279v-118h-94v-161h-132v161h-300v131l304 410h128v-423h94zM313 279v260l-186 -260h186z" />
    <glyph glyph-name="five" unicode="5" 
d="M492 694l-0.00195312 -121h-287l-27 -152c32.667 32.667 75.667 49 129 49c67.333 0 121.333 -21 162 -63s61 -97.333 61 -166c0 -73.333 -24.667 -133.666 -74 -180.999s-112.666 -71 -189.999 -71c-73.333 0 -133.166 18.833 -179.499 56.5s-71.5 91.5 -75.5 161.5h140
c3.33301 -30.667 15.5 -55.5 36.5 -74.5s47.167 -28.5 78.5 -28.5c35.333 0 64.333 12.5 87 37.5s34 57.167 34 96.5s-11 70.666 -33 93.999s-51.667 35 -89 35c-44.667 0 -79.667 -19.333 -105 -58h-127l68 385h391z" />
    <glyph glyph-name="six" unicode="6" 
d="M524 518h-135.002c-13.333 52.667 -44.666 79 -93.999 79c-78 0 -122.333 -69.333 -133 -208c38.667 52.667 90.667 79 156 79c64 0 116.5 -21.667 157.5 -65s61.5 -98.666 61.5 -165.999c0.666992 -72.667 -22.5 -132.334 -69.5 -179.001s-106.833 -70 -179.5 -70
c-82.667 0 -147.334 30.5 -194.001 91.5s-70 146.167 -70 255.5c0 115.333 24.333 205.833 73 271.5s115.334 98.5 200.001 98.5c63.333 0 114.833 -16.333 154.5 -49s63.834 -78.667 72.501 -138zM284.998 362c-32 0 -58.335 -12.332 -79.002 -36.999s-31 -55.667 -31 -93
c0 -38 10.333 -69 31 -93s47.334 -36 80.001 -36s59.667 12.333 81 37s32 55.667 32 93s-10.667 68.166 -32 92.499s-48.666 36.5 -81.999 36.5z" />
    <glyph glyph-name="seven" unicode="7" 
d="M515 694l-0.000976562 -116.998c-77.333 -84.667 -133.5 -171.834 -168.5 -261.501s-55.833 -194.834 -62.5 -315.501h-147c0 84 23.833 183.833 71.5 299.5s101.834 204.5 162.501 266.5h-334v128h478z" />
    <glyph glyph-name="eight" unicode="8" 
d="M146 372c-33.333 11.333 -58.834 29.5 -76.501 54.5s-26.5 55.167 -26.5 90.5c0 54.667 22.333 99.834 67 135.501s100.667 53.5 168 53.5c68 0 124.167 -17.833 168.5 -53.5s66.5 -80.834 66.5 -135.501c0 -74 -34 -122.333 -102 -145
c40.667 -10 72.667 -30.167 96 -60.5s35 -67.166 35 -110.499c0 -64 -24.167 -115.5 -72.5 -154.5s-112.166 -58.5 -191.499 -58.5s-143 19.5 -191 58.5s-72 90.5 -72 154.5c0 43.333 11.667 80.166 35 110.499s55.333 50.5 96 60.5zM277.999 599
c-31.333 0 -56.667 -8.33301 -76 -25s-29 -38.667 -29 -66c0 -28.667 9.66699 -51.5 29 -68.5s45 -25.5 77 -25.5c32.667 0 58.5 8.5 77.5 25.5s28.5 39.833 28.5 68.5s-9.5 51 -28.5 67s-45.167 24 -78.5 24zM274.998 321c-34.667 0 -63 -10.332 -85 -30.999
s-33 -47.334 -33 -80.001c0 -34 11.167 -61.5 33.5 -82.5s51.5 -31.5 87.5 -31.5c36.667 0 66.167 10.333 88.5 31s33.5 48 33.5 82c0 33.333 -11.5 60.333 -34.5 81s-53.167 31 -90.5 31z" />
    <glyph glyph-name="nine" unicode="9" 
d="M29 176l135.003 0.000976562c11.333 -53.333 43.333 -80 96 -80c24.667 0 45.5 6.66699 62.5 20s29.833 32 38.5 56s15 45.833 19 65.5s7 42.5 9 68.5c-38 -54 -88 -81 -150 -81c-64.667 0 -117.834 21.667 -159.501 65s-62.5 98.666 -62.5 165.999
c0 71.333 24 130.833 72 178.5s108 71.5 180 71.5c46.667 0 87.5 -9.83301 122.5 -29.5s62.167 -46.167 81.5 -79.5s33.666 -69.333 42.999 -108s14 -80 14 -124c0 -45.333 -4.66699 -89 -14 -131s-23.833 -82 -43.5 -120s-47.834 -68.5 -84.501 -91.5
s-79.334 -34.5 -128.001 -34.5c-64 0 -116.667 17 -158 51s-65.666 79.667 -72.999 137zM266.003 589.001c-31.333 0 -57.501 -12.168 -78.501 -36.501s-31.5 -54.833 -31.5 -91.5c0 -37.333 10.333 -68 31 -92s47.334 -36 80.001 -36c32 0 58.5 12 79.5 36
s31.5 54.333 31.5 91s-10.667 67.334 -32 92.001s-48 37 -80 37z" />
    <glyph glyph-name="colon" unicode=":" horiz-adv-x="278" 
d="M218 509v-156h-158v156h158zM218 156v-156h-158v156h158z" />
    <glyph glyph-name="semicolon" unicode=";" horiz-adv-x="278" 
d="M219 156l-0.000976562 -126.999c0 -58 -12.833 -102.833 -38.5 -134.5s-65.5 -51.834 -119.5 -60.501v70c44.667 13.333 68.334 45.333 71.001 96h-71v156h158zM216.999 509.001v-156h-158v156h158z" />
    <glyph glyph-name="less" unicode="&#x3c;" horiz-adv-x="600" 
d="M40 207v105l520 200v-122l-362 -130l362 -130v-124z" />
    <glyph glyph-name="equal" unicode="=" horiz-adv-x="600" 
d="M40 308v112h520v-112h-520zM40 99v112h520v-112h-520z" />
    <glyph glyph-name="greater" unicode="&#x3e;" horiz-adv-x="600" 
d="M560 207l-520 -201v124l362 130l-362 130v122l520 -200v-105z" />
    <glyph glyph-name="question" unicode="?" 
d="M31 482c4.66699 76.667 28.334 136.669 71.001 180.002s103 65 181 65c71.333 0 128.666 -18.833 171.999 -56.5s65 -87.167 65 -148.5c0 -38.667 -9.83301 -72 -29.5 -100s-47.5 -54.333 -83.5 -79c-29.333 -20 -48.333 -37.833 -57 -53.5s-13 -40.834 -13 -75.501h-133
c0 46.667 3.83301 82.5 11.5 107.5s26.834 50.5 57.501 76.5l25 20c12.667 10 21.667 17.667 27 23s12 12.666 20 21.999s13.667 19 17 29s5 21 5 33c0 24 -7.83301 43.333 -23.5 58s-36.5 22 -62.5 22c-66.667 0 -101.334 -41 -104.001 -123h-146zM347 153.002v-153h-155
v153h155z" />
    <glyph glyph-name="at" unicode="@" horiz-adv-x="800" 
d="M694 130l29 -39.998c-52 -38 -102 -65.333 -150 -82s-100 -25 -156 -25c-111.333 0 -202.666 33 -273.999 99c-75.333 69.333 -113 157.333 -113 264c0 108 38.667 198.833 116 272.5s172.666 110.5 285.999 110.5c99.333 0 180.5 -28 243.5 -84s94.5 -128 94.5 -216
c0 -69.333 -20.667 -130.5 -62 -183.5s-89.333 -79.5 -144 -79.5c-26 0 -46.667 6.5 -62 19.5s-23 30.833 -23 53.5c0 8 0.666992 14.667 2 20c-32 -62 -78 -93 -138 -93c-40.667 0 -73.5 14.167 -98.5 42.5s-37.5 65.166 -37.5 110.499c0 64.667 20.167 121.167 60.5 169.5
s87.166 72.5 140.499 72.5c54.667 0 92.334 -22.667 113.001 -68l14 52h85l-65 -223c-6.66699 -24 -10 -42 -10 -54c0 -26.667 13.667 -40 41 -40c32.667 0 62.167 21.333 88.5 64s39.5 90 39.5 142c0 72 -26 130.5 -78 175.5s-119.667 67.5 -203 67.5
c-99.333 0 -182 -31.667 -248 -95s-99 -143 -99 -239c0 -90.667 31.167 -164.834 93.5 -222.501s142.5 -86.5 240.5 -86.5c94.667 0 186 32 274 96zM490 434.002c0 19.333 -5.50098 35.166 -16.501 47.499s-25.833 18.5 -44.5 18.5c-34.667 0 -63.667 -21.667 -87 -65
s-35 -83.666 -35 -120.999c0 -27.333 5.5 -48.5 16.5 -63.5s26.5 -22.5 46.5 -22.5c23.333 0 44.833 13.333 64.5 40s33.834 55.5 42.501 86.5s13 57.5 13 79.5z" />
    <glyph glyph-name="A" unicode="A" horiz-adv-x="685" 
d="M423 713l271 -713h-164l-56 159h-265l-58 -159h-160l271 713h161zM436 273l-94 265l-95 -265h189z" />
    <glyph glyph-name="B" unicode="B" horiz-adv-x="704" 
d="M68 712h337c66.667 0 121.167 -14.833 163.5 -44.5s63.5 -74.5 63.5 -134.5c0 -33.333 -8.66699 -62.833 -26 -88.5s-41 -45.167 -71 -58.5c86.667 -24.667 130 -82.667 130 -174c0 -67.333 -22.667 -119.5 -68 -156.5s-103 -55.5 -173 -55.5h-356v712zM220 591v-167.001
h142c78.667 0 118 27.667 118 83c0 32.667 -10.667 54.834 -32 66.501s-50 17.5 -86 17.5h-142zM220 317.999l-0.000976562 -194h157c40.667 0 72.834 6.66699 96.501 20s35.5 39 35.5 77c0 38.667 -12.5 64.5 -37.5 77.5s-59.167 19.5 -102.5 19.5h-149z" />
    <glyph glyph-name="C" unicode="C" horiz-adv-x="741" 
d="M705 275c-8 -89.333 -39.332 -160.335 -93.999 -213.002s-129.667 -79 -225 -79c-103.333 0 -186.5 34.167 -249.5 102.5s-94.5 158.833 -94.5 271.5c0 106.667 31.833 195.334 95.5 266.001s148.5 106 254.5 106c84.667 0 155.667 -24 213 -72s89 -109 95 -183h-153
c-8 39.333 -25.833 69.833 -53.5 91.5s-62.5 32.5 -104.5 32.5c-43.333 0 -79.833 -12.167 -109.5 -36.5s-50.5 -54.166 -62.5 -89.499s-18 -74 -18 -116c0 -73.333 17 -131.833 51 -175.5s79.667 -65.5 137 -65.5c95.333 0 149.666 53.333 162.999 160h155z" />
    <glyph glyph-name="D" unicode="D" horiz-adv-x="741" 
d="M70 0v712h288c110.667 0 195.834 -30.667 255.501 -92s89.5 -149.333 89.5 -264s-29.833 -202.667 -89.5 -264s-144.834 -92 -255.501 -92h-288zM225 130h113.999c138 0 207 75.333 207 226c0 72.667 -17.167 128.5 -51.5 167.5s-86.166 58.5 -155.499 58.5h-114v-452z
" />
    <glyph glyph-name="E" unicode="E" horiz-adv-x="648" 
d="M603 712v-128h-379v-155h348v-123h-348v-175h386v-131h-541v712h534z" />
    <glyph glyph-name="F" unicode="F" horiz-adv-x="593" 
d="M571 712v-131h-346v-165h301v-124h-301v-292h-156v712h502z" />
    <glyph glyph-name="G" unicode="G" horiz-adv-x="759" 
d="M703 385l-0.00292969 -384.999h-99l-15 81c-53.333 -65.333 -124.666 -98 -213.999 -98c-99.333 0 -180 34.333 -242 103s-93 157.667 -93 267c0 110 32.667 199.833 98 269.5s149.333 104.5 252 104.5c81.333 0 150 -22.833 206 -68.5s88.667 -105.834 98 -180.501h-151
c-7.33301 37.333 -24.666 66.333 -51.999 87s-61.666 31 -102.999 31c-59.333 0 -106 -21.5 -140 -64.5s-51 -102.5 -51 -178.5c0 -77.333 17.167 -137.5 51.5 -180.5s82.5 -64.5 144.5 -64.5c48.667 0 88.667 14.833 120 44.5s48 68.5 50 116.5h-159v116h299z" />
    <glyph glyph-name="H" unicode="H" horiz-adv-x="741" 
d="M672 712v-712h-156v307h-291v-307h-156v712h156v-268h291v268h156z" />
    <glyph glyph-name="I" unicode="I" horiz-adv-x="295" 
d="M226 712v-712h-157v712h157z" />
    <glyph glyph-name="J" unicode="J" 
d="M498 712v-489c0 -160 -78 -240 -234 -240c-75.333 0 -133.833 19.667 -175.5 59s-62.5 98.333 -62.5 177v47h144v-22c0 -18 0.166992 -31.5 0.5 -40.5s2 -20.667 5 -35s7.5 -25 13.5 -32s14.833 -13.333 26.5 -19s26.167 -8.5 43.5 -8.5c18.667 0 33.834 3 45.501 9
s20.167 15.167 25.5 27.5s8.66602 24.5 9.99902 36.5s2 27.333 2 46v484h156z" />
    <glyph glyph-name="K" unicode="K" horiz-adv-x="722" 
d="M702 712l-279 -281l305 -431h-196l-216 320l-91 -90v-230h-154v712h154v-296l280 296h197z" />
    <glyph glyph-name="L" unicode="L" horiz-adv-x="593" 
d="M573 134v-134h-504v712h156v-578h348z" />
    <glyph glyph-name="M" unicode="M" horiz-adv-x="907" 
d="M69 0v712h223l166 -489l162 489h218v-712h-147v506l-175 -506h-121l-177 501v-501h-149z" />
    <glyph glyph-name="N" unicode="N" horiz-adv-x="741" 
d="M69 0v712h159l293 -477v477h150v-712h-156l-295 478v-478h-151z" />
    <glyph glyph-name="O" unicode="O" horiz-adv-x="778" 
d="M391 729c104 0 188.167 -34.5 252.5 -103.5s96.5 -159.167 96.5 -270.5s-32.167 -201.166 -96.5 -269.499s-148.833 -102.5 -253.5 -102.5c-105.333 0 -190.333 34.167 -255 102.5s-97 158.166 -97 269.499c0 112.667 32.167 203.167 96.5 271.5
s149.833 102.5 256.5 102.5zM389 601c-58.667 0 -105.501 -22.001 -140.501 -66.001s-52.5 -103 -52.5 -177c0 -76.667 17.333 -136.667 52 -180s82.334 -65.333 143.001 -66c59.333 0 106 22 140 66s51 104 51 180c0 74.667 -17.333 133.834 -52 177.501
s-81.667 65.5 -141 65.5z" />
    <glyph glyph-name="P" unicode="P" horiz-adv-x="667" 
d="M70 712h307c80 0 143.5 -19.167 190.5 -57.5s70.5 -95.5 70.5 -171.5c0 -74.667 -23.333 -131.167 -70 -169.5s-107.667 -57.5 -183 -57.5h-160v-256h-155v712zM225 584v-205h139c81.333 0 122 34 122 102c0 68.667 -40.333 103 -121 103h-140z" />
    <glyph glyph-name="Q" unicode="Q" horiz-adv-x="778" 
d="M734 8l-72.999 -78.999l-105 95c-42.667 -27.333 -100 -41 -172 -41c-103.333 0 -186.833 34 -250.5 102s-95.5 157.667 -95.5 269c0 110 32.833 199.833 98.5 269.5s150.5 104.5 254.5 104.5c102 0 185.333 -34.5 250 -103.5s97 -157.833 97 -266.5
c0 -55.333 -8.33301 -106.333 -25 -153s-40.334 -84.334 -71.001 -113.001zM534.001 192.001c32 38 47.999 93 47.999 165c0 74.667 -17.333 133.667 -52 177s-82 65 -142 65c-58.667 0 -105.5 -22 -140.5 -66s-52.5 -103.333 -52.5 -178c0 -75.333 17.333 -135.333 52 -180
s81.334 -67 140.001 -67c24 0 46.667 4.66699 68 14l-71 62l73 78z" />
    <glyph glyph-name="R" unicode="R" horiz-adv-x="722" 
d="M75 712l354 -0.00292969c70.667 0 128.334 -16.667 173.001 -50s67 -84 67 -152c0 -41.333 -10 -77.5 -30 -108.5s-47.667 -53.167 -83 -66.5c61.333 -12.667 96.333 -68 105 -166c0 -3.33301 0.666992 -13.666 2 -30.999s2.66602 -31.166 3.99902 -41.499l5 -37.5
c2 -14.667 5 -27 9 -37s8.66699 -17.333 14 -22h-162c-5.33301 10.667 -9.33301 24.167 -12 40.5s-5 37.333 -7 63s-3 39.834 -3 42.501c-5.33301 50 -17.833 84.667 -37.5 104s-54.5 29 -104.5 29h-139v-279h-155v712zM230 588.997l0.000976562 -196.999h148
c43.333 0 77.166 6.83301 101.499 20.5s36.5 40.5 36.5 80.5c0 37.333 -11.833 62.666 -35.5 75.999s-55.5 20 -95.5 20h-155z" />
    <glyph glyph-name="S" unicode="S" horiz-adv-x="649" 
d="M596 500l-148.002 -0.000976562c-6 70.667 -51 106 -135 106c-36 0 -64.167 -7.16699 -84.5 -21.5s-30.5 -34.166 -30.5 -59.499c0 -8.66699 1.33301 -16.334 4 -23.001s7.66699 -12.834 15 -18.501s14.666 -10.334 21.999 -14.001s18.166 -7.66699 32.499 -12l39 -11.5
c11.667 -3.33301 28.167 -7.66602 49.5 -12.999s40 -10.333 56 -15c70 -20 122.167 -45 156.5 -75s51.5 -73 51.5 -129c0 -40.667 -8.33301 -76.167 -25 -106.5s-39.167 -54.333 -67.5 -72s-59.333 -30.667 -93 -39s-69.5 -12.5 -107.5 -12.5
c-96.667 0 -172.167 22.167 -226.5 66.5s-81.833 106.833 -82.5 187.5h155c2.66699 -89.333 56.334 -134 161.001 -134c40.667 0 72.834 8.5 96.501 25.5s35.5 40.167 35.5 69.5c0 24.667 -10.833 42.667 -32.5 54s-67.167 27 -136.5 47c-11.333 2.66699 -20 5 -26 7
c-24 6.66699 -40.667 11.5 -50 14.5s-24.166 8.16699 -44.499 15.5s-35.166 14 -44.499 20s-20.833 14.333 -34.5 25s-23.5 21.834 -29.5 33.501s-11.5 26 -16.5 43s-7.5 35.5 -7.5 55.5c0 64.667 25 116.334 75 155.001s116.333 58 199 58c80 0 145.333 -18.833 196 -56.5
s76.667 -94.5 78 -170.5z" />
    <glyph glyph-name="T" unicode="T" horiz-adv-x="611" 
d="M598 712v-133h-214v-579h-157v579h-214v133h585z" />
    <glyph glyph-name="U" unicode="U" horiz-adv-x="741" 
d="M675 712v-428c0 -102 -24.5 -177.167 -73.5 -225.5s-125.5 -72.5 -229.5 -72.5c-105.333 0 -182.833 24.5 -232.5 73.5s-74.5 124.5 -74.5 226.5v426h156v-426c0 -58 11 -101 33 -129s62 -42 120 -42c56 0 94.167 14 114.5 42s30.5 71 30.5 129v426h156z" />
    <glyph glyph-name="V" unicode="V" horiz-adv-x="630" 
d="M-8 712h163l160 -500l162 500h162l-237 -712h-177z" />
    <glyph glyph-name="W" unicode="W" horiz-adv-x="944" 
d="M3 712h157l114 -484l125 484h147l123 -490l118 490h154l-192 -712h-156l-122 486l-120 -486h-159z" />
    <glyph glyph-name="X" unicode="X" horiz-adv-x="667" 
d="M651 712l-229 -340l250 -372h-187l-156 247l-158 -247h-178l251 372l-232 340h182l142 -229l143 229h172z" />
    <glyph glyph-name="Y" unicode="Y" horiz-adv-x="667" 
d="M676 712l-265 -438v-274h-154v277l-266 435h178l166 -285l168 285h173z" />
    <glyph glyph-name="Z" unicode="Z" horiz-adv-x="648" 
d="M610 712v-119l-386 -459h399v-134h-603v127l383 452h-356v133h563z" />
    <glyph glyph-name="bracketleft" unicode="[" horiz-adv-x="333" 
d="M329 717v-109h-128v-671h128v-109h-259v889h259z" />
    <glyph glyph-name="backslash" unicode="\" horiz-adv-x="371" 
d="M113 729l273 -746h-123l-272 746h122z" />
    <glyph glyph-name="bracketright" unicode="]" horiz-adv-x="333" 
d="M4 717h259v-889h-259v109h128v671h-128v109z" />
    <glyph glyph-name="asciicircum" unicode="^" horiz-adv-x="600" 
d="M67 268l176 426h114l176 -426h-119l-117 288l-111 -288h-119z" />
    <glyph glyph-name="underscore" unicode="_" horiz-adv-x="500" 
d="M0 -125v50h500v-50h-500z" />
    <glyph glyph-name="grave" unicode="`" horiz-adv-x="259" 
d="M111 722l94 -143h-101l-152 143h159z" />
    <glyph glyph-name="a" unicode="a" horiz-adv-x="574" 
d="M534 0h-144.003c-4.66699 13.333 -8 30 -10 50c-43.333 -43.333 -99 -65 -167 -65c-57.333 0 -102.333 13.833 -135 41.5s-49 65.834 -49 114.501c0 22 2.83301 41.333 8.5 58s15 30.667 28 42s25.333 20.666 37 27.999s27.834 13.333 48.501 18
s37.334 8.16699 50.001 10.5s30.334 4.83301 53.001 7.5c50 6.66699 83.5 13.667 100.5 21s25.5 21 25.5 41c0 46 -31 69 -93 69c-32.667 0 -56.667 -5.83301 -72 -17.5s-25.333 -32.167 -30 -61.5h-133c8 116 87.667 174 239 174c150 0 225 -56 225 -168v-223
c0 -65.333 6 -112 18 -140zM378.997 251c-16.667 -10 -50.001 -19.001 -100.001 -27.001c-42 -6.66699 -69.333 -15 -82 -25c-14.667 -12 -22 -29.333 -22 -52c0 -21.333 6.83301 -38.166 20.5 -50.499s32.834 -18.5 57.501 -18.5c38 0 68.5 10.167 91.5 30.5
s34.5 48.5 34.5 84.5v58z" />
    <glyph glyph-name="b" unicode="b" horiz-adv-x="611" 
d="M194 712v-259c40 50 94.333 75 163 75s122.667 -25 162 -75s59 -113.333 59 -190c0 -82.667 -21.167 -149.5 -63.5 -200.5s-97.5 -76.5 -165.5 -76.5c-71.333 0 -125.333 26.333 -162 79l1 -65h-135v712h141zM313 419c-38 0 -68.167 -14.166 -90.5 -42.499
s-33.5 -66.833 -33.5 -115.5c0 -50 11 -89.333 33 -118s52.333 -43 91 -43c36.667 0 66.167 14.667 88.5 44s33.5 68.666 33.5 117.999c0 47.333 -11.167 85.333 -33.5 114s-51.833 43 -88.5 43z" />
    <glyph glyph-name="c" unicode="c" horiz-adv-x="574" 
d="M546 199c-8.66699 -66.667 -34.8311 -118.668 -78.498 -156.001s-99.834 -56 -168.501 -56c-79.333 0 -143 24.333 -191 73s-72 113.334 -72 194.001c0 83.333 24.167 150.333 72.5 201s112.5 76 192.5 76c68.667 0 124.667 -17.5 168 -52.5s68 -82.5 74 -142.5h-139
c-10.667 59.333 -44.667 89 -102 89c-38.667 0 -68.834 -14.833 -90.501 -44.5s-32.5 -70.834 -32.5 -123.501c0 -51.333 10.5 -91.166 31.5 -119.499s50.5 -42.5 88.5 -42.5c62 0 98.667 34.667 110 104h137z" />
    <glyph glyph-name="d" unicode="d" horiz-adv-x="611" 
d="M557 0h-134.001v66c-34 -53.333 -86 -80 -156 -80c-71.333 0 -128.166 24.833 -170.499 74.5s-63.5 116.167 -63.5 199.5c0 81.333 20.5 146.666 61.5 195.999s95.833 74 164.5 74c32 0 62.167 -6.66699 90.5 -20s50.5 -32.666 66.5 -57.999v260h141v-712zM420.999 259
c0 50 -10.8311 88.999 -32.498 116.999s-51.834 42 -90.501 42s-68.667 -14 -90 -42s-32 -66.667 -32 -116c0 -50 10.833 -89.167 32.5 -117.5s51.5 -42.5 89.5 -42.5c39.333 0 69.666 13.833 90.999 41.5s32 66.834 32 117.501z" />
    <glyph glyph-name="e" unicode="e" horiz-adv-x="574" 
d="M539 160c-16 -55.333 -45.501 -98.332 -88.501 -128.999s-94.167 -46 -153.5 -46c-79.333 0 -143.166 24.667 -191.499 74s-72.5 114.666 -72.5 195.999c0 80 24.333 146 73 198s110.667 78 186 78c78 0 140 -26.5 186 -79.5s69 -124.833 69 -215.5v-14h-370
c0.666992 -44.667 11.5 -78.667 32.5 -102s50.5 -35 88.5 -35c50 0 85 25 105 75h136zM402.999 312.001c-3.33301 34 -14.333 61.833 -33 83.5s-44.667 32.5 -78 32.5c-31.333 0 -57.333 -10.333 -78 -31s-33 -49 -37 -85h226z" />
    <glyph glyph-name="f" unicode="f" horiz-adv-x="333" 
d="M335 712l0.000976562 -104c-29.333 1.33301 -45 2 -47 2c-25.333 0 -42.166 -3.5 -50.499 -10.5s-12.5 -21.167 -12.5 -42.5v-41h101v-96h-100v-420h-142v420h-84v96h84v27c0 60.667 13.667 104.5 41 131.5s72.666 40.5 135.999 40.5
c7.33301 0 15.166 -0.166992 23.499 -0.5s17.5 -0.833008 27.5 -1.5s17.667 -1 23 -1z" />
    <glyph glyph-name="g" unicode="g" horiz-adv-x="611" 
d="M549 516v-462.001c0 -84.667 -21 -146.834 -63 -186.501s-105.667 -59.5 -191 -59.5c-147.333 0 -228 53.667 -242 161h141c5.33301 -23.333 16.333 -40.166 33 -50.499s40.334 -15.5 71.001 -15.5c44.667 0 74.667 10.833 90 32.5s23.333 55.5 24 101.5l1 58
c-38.667 -53.333 -91.334 -80 -158.001 -80c-67.333 0 -120.833 23 -160.5 69s-59.5 107.667 -59.5 185c0 78.667 20.667 141.834 62 189.501s96 71.5 164 71.5c36 0 65.833 -6.5 89.5 -19.5s45.167 -34.167 64.5 -63.5v69h134zM294 419.999
c-37.333 0 -66.502 -13.168 -87.502 -39.501s-31.5 -63.166 -31.5 -110.499c0 -45.333 10.833 -81.5 32.5 -108.5s50.834 -40.5 87.501 -40.5s65.667 13.667 87 41s32 64.333 32 111c0 46 -10.667 82 -32 108s-50.666 39 -87.999 39z" />
    <glyph glyph-name="h" unicode="h" horiz-adv-x="593" 
d="M195 712l0.000976562 -265.001c40.667 54.667 95 82 163 82c120.667 0 181 -63.667 181 -191v-338h-142v304c0 35.333 -6.33301 62.333 -19 81s-36.667 28 -72 28c-42.667 0 -71.834 -13.667 -87.501 -41s-23.5 -63.666 -23.5 -108.999v-263h-140v712h140z" />
    <glyph glyph-name="i" unicode="i" horiz-adv-x="258" 
d="M200 712v-120h-142v120h142zM200 516v-516h-142v516h142z" />
    <glyph glyph-name="j" unicode="j" horiz-adv-x="278" 
d="M210 516v-516.998c0 -68 -12.167 -116 -36.5 -144s-69.5 -42 -135.5 -42c-18.667 0 -37.667 0.666992 -57 2v114c8 -0.666992 16.667 -1 26 -1c14.667 0 26.167 1.33301 34.5 4s14.5 7.66699 18.5 15s6.33301 14.666 7 21.999s1 18.666 1 33.999v513h142zM210 712.002
v-122h-142v122h142z" />
    <glyph glyph-name="k" unicode="k" horiz-adv-x="574" 
d="M555 516l-194 -191l217 -325h-172l-142 229l-58 -54v-175h-139v712h139v-381l182 185h167z" />
    <glyph glyph-name="l" unicode="l" horiz-adv-x="258" 
d="M200 712v-712h-142v712h142z" />
    <glyph glyph-name="m" unicode="m" horiz-adv-x="906" 
d="M849 0h-143.999v308c0 34 -5.33301 60.167 -16 78.5s-32.667 27.5 -66 27.5c-66 0 -99 -41.333 -99 -124v-290h-142v314c0 32 -5.33301 56.833 -16 74.5s-31.334 26.5 -62.001 26.5c-68.667 0 -103 -45 -103 -135v-280h-142v516h135v-71
c40.667 56.667 95.334 85 164.001 85c71.333 0 120 -28.333 146 -85c41.333 56.667 97.666 85 168.999 85c56.667 0 100.167 -16.5 130.5 -49.5s45.5 -77.5 45.5 -133.5v-347z" />
    <glyph glyph-name="n" unicode="n" horiz-adv-x="593" 
d="M540 0h-144v301c0 36.667 -6 64.5 -18 83.5s-35.333 28.5 -70 28.5c-74.667 0 -112 -45.333 -112 -136v-277h-141v516h135v-72c42.667 57.333 99.667 86 171 86c55.333 0 99 -16 131 -48s48 -77.667 48 -137v-345z" />
    <glyph glyph-name="o" unicode="o" horiz-adv-x="611" 
d="M308 531c79.333 0 143.168 -25 191.501 -75s72.5 -116 72.5 -198c0 -82.667 -24.167 -149 -72.5 -199s-112.833 -75 -193.5 -75s-145.334 25 -194.001 75s-73 116.333 -73 199c0 82 24.667 148 74 198s114.333 75 195 75zM304.002 423
c-38 0 -68.001 -14.6689 -90.001 -44.002s-33 -69.666 -33 -120.999c0 -52.667 11 -93.667 33 -123s52.667 -44 92 -44s69.833 14.833 91.5 44.5s32.5 70.834 32.5 123.501c0 51.333 -11.167 91.5 -33.5 120.5s-53.166 43.5 -92.499 43.5z" />
    <glyph glyph-name="p" unicode="p" horiz-adv-x="611" 
d="M188 516l0.000976562 -64c37.333 52 90.666 78 159.999 78s125 -25 167 -75s63 -116.667 63 -200c0 -80.667 -20.5 -145.5 -61.5 -194.5s-95.167 -73.5 -162.5 -73.5c-69.333 0 -122.333 25.667 -159 77v-247h-141v699h134zM313.001 416c-38.667 0 -68.833 -14 -90.5 -42
s-32.5 -67 -32.5 -117s11 -89 33 -117s52.333 -42 91 -42c38 0 67.833 14 89.5 42s32.5 66.333 32.5 115c0 50 -11 89.333 -33 118s-52 43 -90 43z" />
    <glyph glyph-name="q" unicode="q" horiz-adv-x="611" 
d="M558 516l0.000976562 -699h-141v248c-38 -52 -91 -78 -159 -78c-68.667 0 -123.334 24.333 -164.001 73s-61 113.667 -61 195c0 83.333 21 150 63 200s98 75 168 75c71.333 0 124.333 -26 159 -78v64h135zM295.001 417c-36.667 0 -65.668 -14.501 -87.001 -43.501
s-32 -68.833 -32 -119.5c0 -49.333 10.667 -87.666 32 -114.999s51.333 -41 90 -41s68.834 14.167 90.501 42.5s32.5 67.833 32.5 118.5c0 50 -11 88.833 -33 116.5s-53 41.5 -93 41.5z" />
    <glyph glyph-name="r" unicode="r" horiz-adv-x="389" 
d="M389 525v-131c-20 4 -38.333 6 -55 6c-46.667 0 -81 -14.833 -103 -44.5s-33 -69.5 -33 -119.5v-236h-142v516h135v-95c34 71.333 89.667 107 167 107c6.66699 0 17 -1 31 -3z" />
    <glyph glyph-name="s" unicode="s" horiz-adv-x="537" 
d="M490 366h-132.003c-4 26 -13.833 44.333 -29.5 55s-38.5 16 -68.5 16c-25.333 0 -45 -4.5 -59 -13.5s-21 -21.5 -21 -37.5c0 -18.667 8 -31.667 24 -39s44.667 -15.333 86 -24c7.33301 -1.33301 12.666 -2.33301 15.999 -3c24 -4.66699 43.167 -8.83398 57.5 -12.501
s31.833 -9.66699 52.5 -18s36.667 -17.666 48 -27.999s21.333 -24.166 30 -41.499s13 -37.333 13 -60c0 -54 -21 -96.667 -63 -128s-99.667 -47 -173 -47c-70 0 -127.667 15 -173 45s-68.333 76 -69 138h135c4.66699 -57.333 41.334 -86 110.001 -86
c28.667 0 51.5 5.83301 68.5 17.5s25.5 27.167 25.5 46.5s-7.66699 33 -23 41s-43.666 16.667 -84.999 26c-3.33301 0.666992 -6 1.33398 -8 2.00098c-4.66699 1.33301 -15 3.66602 -31 6.99902s-27.167 5.83301 -33.5 7.5l-31 8.5c-14.333 4 -24.833 7.83301 -31.5 11.5
l-26.5 14c-11 5.66699 -19.167 11.834 -24.5 18.501s-11.166 14.5 -17.499 23.5s-10.666 19.167 -12.999 30.5s-3.5 23.666 -3.5 36.999c0 50.667 19.667 89.667 59 117s95 41 167 41c64.667 0 117.667 -13.333 159 -40s63 -68.334 65 -125.001z" />
    <glyph glyph-name="t" unicode="t" horiz-adv-x="352" 
d="M338 516l0.00292969 -96.001h-105v-243c0 -15.333 0.333008 -26.5 1 -33.5s3 -14.167 7 -21.5s10.167 -12.166 18.5 -14.499s20.166 -3.5 35.499 -3.5c17.333 0 31.666 0.666992 42.999 2v-108c-34.667 -2.66699 -63.334 -4 -86.001 -4
c-62 0 -104.167 10.833 -126.5 32.5s-33.5 63.5 -33.5 125.5v268h-86v96h86v156h141v-156h105z" />
    <glyph glyph-name="u" unicode="u" horiz-adv-x="593" 
d="M538 516l0.00292969 -516h-135v73c-40 -58.667 -96 -88 -168 -88c-56.667 0 -100.834 15.5 -132.501 46.5s-47.5 76.833 -47.5 137.5v347h143v-295c0 -19.333 0.833008 -34.833 2.5 -46.5s5.16699 -23.5 10.5 -35.5s14.166 -20.833 26.499 -26.5s28.166 -8.5 47.499 -8.5
c74.667 0 112 48.667 112 146v266h141z" />
    <glyph glyph-name="v" unicode="v" horiz-adv-x="520" 
d="M375 516h141l-175 -516h-159l-177 516h150l110 -352z" />
    <glyph glyph-name="w" unicode="w" horiz-adv-x="814" 
d="M5 516h151l96 -351l87 351h137l90 -349l96 349h145l-163 -516h-146l-92 347l-89 -347h-147z" />
    <glyph glyph-name="x" unicode="x" horiz-adv-x="537" 
d="M517 516l-170 -241l191 -275h-162l-109 167l-108 -167h-161l188 272l-171 244h162l92 -138l91 138h157z" />
    <glyph glyph-name="y" unicode="y" horiz-adv-x="519" 
d="M523 516l-190.001 -514.002c-9.33301 -26 -16.166 -44.167 -20.499 -54.5s-11 -24.833 -20 -43.5s-17.333 -31.667 -25 -39s-18 -15.666 -31 -24.999s-27.667 -15.666 -44 -18.999s-35.166 -5 -56.499 -5c-17.333 0 -49 0.333008 -95 1v117h69
c23.333 0 41.166 6 53.499 18s18.5 29 18.5 51c0 5.33301 -1.33301 12 -4 20l-187 493h153l118 -351l114 351h147z" />
    <glyph glyph-name="z" unicode="z" horiz-adv-x="519" 
d="M479 516v-103l-272 -301h290v-112h-475v108l273 299h-252v109h436z" />
    <glyph glyph-name="braceleft" unicode="{" horiz-adv-x="333" 
d="M330 -171c-86 4 -145.835 22.833 -179.502 56.5s-50.5 91.834 -50.5 174.501v36c0 52.667 -5.5 88.667 -16.5 108s-39.167 31.666 -84.5 36.999v64c39.333 4.66699 66 16.334 80 35.001s21 49 21 91v54c0 83.333 16.833 141.666 50.5 174.999s93.5 52.666 179.5 57.999
v-64c-39.333 -4 -65.666 -16.167 -78.999 -36.5s-20 -54.166 -20 -101.499v-57c0 -57.333 -11.167 -100.833 -33.5 -130.5s-60.833 -48.167 -115.5 -55.5c56 -5.33301 94.833 -23.833 116.5 -55.5s32.5 -75.167 32.5 -130.5v-58c0 -46 6.33301 -79.333 19 -100
s39.334 -33 80.001 -37v-63z" />
    <glyph glyph-name="bar" unicode="|" horiz-adv-x="223" 
d="M51 -214v1000h121v-1000h-121z" />
    <glyph glyph-name="braceright" unicode="}" horiz-adv-x="333" 
d="M330 241c-45.333 -5.33301 -73.502 -17.666 -84.502 -36.999s-16.5 -55.333 -16.5 -108v-36c0 -82.667 -16.833 -140.834 -50.5 -174.501s-93.5 -52.5 -179.5 -56.5v63c40.667 4 67.334 16.333 80.001 37s19 54 19 100v58c0 55.333 10.833 98.833 32.5 130.5
s60.5 50.167 116.5 55.5c-54.667 7.33301 -93.167 25.833 -115.5 55.5s-33.5 73.167 -33.5 130.5v57c0 47.333 -6.66699 81.166 -20 101.499s-39.666 32.5 -78.999 36.5v64c86 -5.33301 145.833 -24.666 179.5 -57.999s50.5 -91.666 50.5 -174.999v-54
c0 -42 7 -72.333 21 -91s40.667 -30.334 80 -35.001v-64z" />
    <glyph glyph-name="asciitilde" unicode="~" horiz-adv-x="600" 
d="M422 171c-14 0 -31.3311 2.33105 -51.998 6.99805s-37.834 9.33398 -51.501 14.001l-59 21c-25.667 9.33301 -41.834 15 -48.501 17c-21.333 6.66699 -36.333 10 -45 10c-17.333 0 -31.166 -7 -41.499 -21s-16.833 -30.333 -19.5 -49h-78
c2 22.667 6.16699 43.834 12.5 63.501s15 38.5 26 56.5s26 32.167 45 42.5s41.167 15.5 66.5 15.5c10.667 0 22.5 -1.16699 35.5 -3.5s23.667 -4.83301 32 -7.5s20.166 -6.66699 35.499 -12l32 -11c66 -22 107.667 -33 125 -33c32 0 52 22.333 60 67h78
c-13.333 -118 -64.333 -177 -153 -177z" />
    <glyph glyph-name="sterling" unicode="&#xa3;" 
d="M540 479l-140 -0.000976562c-1.33301 82.667 -37.666 124 -108.999 124c-28.667 0 -52.334 -8.66699 -71.001 -26s-28 -39.333 -28 -66c0 -15.333 4.83301 -35 14.5 -59s19.5 -44 29.5 -60h133v-82h-106c7.33301 -24.667 11 -43 11 -55
c0 -29.333 -7.16699 -54.666 -21.5 -75.999s-35.5 -44 -63.5 -68c31.333 14 61.333 21 90 21c18 0 41.333 -3.33301 70 -10c30.667 -8 52 -12 64 -12c36.667 0 67.334 14 92.001 42l60 -103c-41.333 -41.333 -95 -62 -161 -62c-29.333 0 -69.666 7.66699 -120.999 23
c-38.667 10.667 -68.667 16 -90 16c-33.333 0 -69 -13.333 -107 -40l-61 91c2 1.33301 7.33301 5.66602 16 12.999l16.5 14l14.5 13c7.33301 6.66699 12.166 11.334 14.499 14.001l12.5 14c6 6.66699 10 12 12 16l8.5 16.5c3.66699 7 6.16699 13.333 7.5 19
s2.66602 12.167 3.99902 19.5s2 15 2 23c0 22 -5.66699 45.667 -17 71h-98v82h64c-28.667 40.667 -43 82.667 -43 126c0 60.667 23 109.667 69 147s106.333 56 181 56c78.667 0 139.667 -20.833 183 -62.5s66 -101.5 68 -179.5z" />
    <glyph glyph-name="currency" unicode="&#xa4;" 
d="M524 173l-61 -61.001l-67 66c-36 -24 -75 -36 -117 -36c-44 0 -83.667 12 -119 36l-67 -66l-61 61l66 66c-24 38 -36 77.667 -36 119c0 42 12 81.667 36 119l-66 66l61 61l66 -66c37.333 24 77 36 119 36c38.667 0 78.667 -12 120 -36l65 66l61 -61l-66 -66
c24 -33.333 36 -73.333 36 -120c0 -41.333 -12 -80.666 -36 -117.999zM382 357.999c0 28.667 -10.167 53.167 -30.5 73.5s-44.833 30.5 -73.5 30.5s-53.167 -10.167 -73.5 -30.5s-30.5 -44.833 -30.5 -73.5s10.167 -53.167 30.5 -73.5s44.833 -30.5 73.5 -30.5
s53.167 10.167 73.5 30.5s30.5 44.833 30.5 73.5z" />
    <glyph glyph-name="brokenbar" unicode="&#xa6;" horiz-adv-x="223" 
d="M58 -89v250h107v-250h-107zM58 411v250h107v-250h-107z" />
    <glyph glyph-name="section" unicode="&#xa7;" 
d="M494 537l-126.002 0.000976562c-4 54.667 -31.667 82 -83 82c-22 0 -39.833 -5.66699 -53.5 -17s-20.5 -26 -20.5 -44c0 -5.33301 0.333008 -10 1 -14s2.16699 -8.16699 4.5 -12.5s4.5 -8 6.5 -11s5.83301 -6.5 11.5 -10.5l14.5 -10c4 -2.66699 10.667 -6.5 20 -11.5
l24.5 -13l31 -16l36.5 -18.5c3.33301 -2 13.5 -7.33301 30.5 -16l33.5 -17c5.33301 -2.66699 15.333 -8.33398 30 -17.001s24.834 -15.667 30.501 -21l23.5 -23c10 -10 17 -19.333 21 -28s7.83301 -19 11.5 -31s5.5 -24.667 5.5 -38c0 -33.333 -9.33301 -63 -28 -89
s-44 -44.667 -76 -56c36 -32.667 54 -70.667 54 -114c0 -52.667 -20 -95.5 -60 -128.5s-92 -49.5 -156 -49.5c-68.667 0 -122.667 17.667 -162 53s-59.333 84 -60 146h127c4.66699 -59.333 36.334 -89 95.001 -89c24 0 43.167 6 57.5 18s21.5 28 21.5 48
c0 22 -11.167 41 -33.5 57s-67.833 41 -136.5 75c-59.333 29.333 -99 52.333 -119 69c-40 32.667 -60 73.334 -60 122.001c0 35.333 9.5 65.5 28.5 90.5s45.167 42.833 78.5 53.5c-28.667 29.333 -43 63 -43 101c0 49.333 19.667 89.666 59 120.999s90 47 152 47
s112 -17.167 150 -51.5s57.333 -79.833 58 -136.5zM187.998 391.001c-36 -10.667 -53.9971 -32.667 -53.9971 -66c0 -9.33301 1.66699 -17.666 5 -24.999s9.16602 -14 17.499 -20s14.666 -10.333 18.999 -13s12.166 -7 23.499 -13l170 -88c16 1.33301 29 7.66602 39 18.999
s15 25.333 15 42c0 18 -5.16699 32.167 -15.5 42.5s-25.5 20.5 -45.5 30.5z" />
    <glyph glyph-name="copyright" unicode="&#xa9;" horiz-adv-x="800" 
d="M393 731c103.333 0 191.666 -36.5 264.999 -109.5s110 -161.167 110 -264.5s-36.5 -191.5 -109.5 -264.5s-161.167 -109.5 -264.5 -109.5s-191.666 36.5 -264.999 109.5s-110 161.167 -110 264.5s36.5 191.5 109.5 264.5s161.167 109.5 264.5 109.5zM393 666
c-85.333 0 -158.166 -30.167 -218.499 -90.5s-90.5 -133.166 -90.5 -218.499s30.167 -158.166 90.5 -218.499s133.166 -90.5 218.499 -90.5s158.333 30.167 219 90.5s91 133.166 91 218.499s-30.333 158.166 -91 218.499s-133.667 90.5 -219 90.5zM582 296
c-5.33301 -47.333 -24.5 -85.667 -57.5 -115s-73.833 -44 -122.5 -44c-60 0 -109.667 20.833 -149 62.5s-59 94.167 -59 157.5c0 65.333 18.667 118.833 56 160.5s85.333 62.5 144 62.5c51.333 0 94.5 -15.167 129.5 -45.5s54.167 -69.166 57.5 -116.499h-92
c-4 24.667 -13.833 44 -29.5 58s-35.5 21 -59.5 21c-29.333 0 -52.333 -12.333 -69 -37s-25 -58.334 -25 -101.001c0 -43.333 8.83301 -77.333 26.5 -102s42.167 -37 73.5 -37c24.667 0 43.5 6.33301 56.5 19s22.167 31.667 27.5 57h92z" />
    <glyph glyph-name="guillemotleft" unicode="&#xab;" horiz-adv-x="444" 
d="M395 454v-120l-88 -69l88 -69v-121l-156 123v133zM200 454v-118l-90 -69l90 -71v-122l-158 126v131z" />
    <glyph glyph-name="logicalnot" unicode="&#xac;" horiz-adv-x="600" 
d="M40 308v112h520v-321h-113v209h-407z" />
    <glyph glyph-name="registered" unicode="&#xae;" horiz-adv-x="400" 
d="M199 729c51.333 0 95.333 -18.167 132 -54.5s55 -80.166 55 -131.499s-18.333 -95.333 -55 -132s-80.667 -55 -132 -55s-95.166 18.333 -131.499 55s-54.5 80.667 -54.5 132s18.167 95.166 54.5 131.499s80.166 54.5 131.499 54.5zM199 697c-42.667 0 -79 -15 -109 -45
s-45 -66.333 -45 -109s15 -79 45 -109s66.333 -45 109 -45s79 15 109 45s45 66.333 45 109s-15 79 -45 109s-66.333 45 -109 45zM121 647h74.002c61.333 0 92 -20.333 92 -61c0 -24 -12.667 -40.333 -38 -49c13.333 -5.33301 22.333 -12.5 27 -21.5
s7.33398 -24.833 8.00098 -47.5c0 -10.667 1.66699 -20 5 -28h-48c-2.66699 5.33301 -4.33398 15 -5.00098 29c-0.666992 20 -3.83398 33 -9.50098 39s-17.834 9 -36.501 9h-20v-77h-49v207zM170.002 555h23c30 0 45 9 45 27s-15 27 -45 27h-23v-54z" />
    <glyph glyph-name="degree" unicode="&#xb0;" horiz-adv-x="400" 
d="M363 541c0 -44.667 -15.833 -83 -47.5 -115s-70.167 -48 -115.5 -48s-83.833 16 -115.5 48s-47.5 70.333 -47.5 115s15.833 83 47.5 115s70.167 48 115.5 48s83.833 -16 115.5 -48s47.5 -70.333 47.5 -115zM272 541c0 20 -7 37.167 -21 51.5s-31 21.5 -51 21.5
s-37 -7.16699 -51 -21.5s-21 -31.5 -21 -51.5s7 -37 21 -51s31 -21 51 -21s37 7 51 21s21 31 21 51z" />
    <glyph glyph-name="plusminus" unicode="&#xb1;" horiz-adv-x="600" 
d="M241 118v152h-201v111h201v155h118v-155h201v-111h-201v-152h-118zM40 -17v111h520v-111h-520z" />
    <glyph glyph-name="mu" unicode="&#xb5;" horiz-adv-x="593" 
d="M57 -183l0.000976562 699.001h141v-206v-25.5v-28c0 -6.33301 0.166992 -15.5 0.5 -27.5s1.16602 -21.333 2.49902 -28l5 -25c2 -10 4.66699 -18 8 -24s7.5 -12.5 12.5 -19.5s10.833 -12.333 17.5 -16s14.5 -6.83398 23.5 -9.50098s18.833 -4 29.5 -4
c66.667 0 100 68.667 100 206v207h141v-516h-127v72c-16.667 -27.333 -33 -47.5 -49 -60.5s-36 -19.5 -60 -19.5c-44.667 0 -81.667 19 -111 57v-232h-134z" />
    <glyph glyph-name="paragraph" unicode="&#xb6;" horiz-adv-x="620" 
d="M583 631h-54v-814h-99v814h-108v-814h-99v430c-61.333 4 -109.833 26.167 -145.5 66.5s-53.5 92.166 -53.5 155.499c0 78.667 23.833 138.834 71.5 180.501s110.5 62.5 188.5 62.5h299v-81z" />
    <glyph glyph-name="periodcentered" unicode="&#xb7;" horiz-adv-x="278" 
d="M218 365v-156h-158v156h158z" />
    <glyph glyph-name="guillemotright" unicode="&#xbb;" horiz-adv-x="444" 
d="M244 456l158 -126v-132l-158 -123v118l91 70l-91 72v121zM49 455l156 -124v-132l-156 -122v117l89 70l-89 69v122z" />
    <glyph glyph-name="divide" unicode="&#xf7;" horiz-adv-x="600" 
d="M40 208v125h520v-125h-520zM238 8v134h124v-134h-124zM238 399v134h124v-134h-124z" />
    <glyph glyph-name="florin" unicode="&#x192;" 
d="M451 430l-17.001 -93.999h-99l-57 -309c-13.333 -74.667 -34.666 -126.334 -63.999 -155.001s-81 -43 -155 -43c-22 0 -43.667 0.666992 -65 2l18 106c10 -0.666992 20 -1 30 -1c28.667 0 48.667 4.83301 60 14.5s20.333 32.167 27 67.5l60 318h-91l17 94h92l20 109
c12 65.333 33.667 111.5 65 138.5s79.333 40.5 144 40.5c16.667 0 41 -1 73 -3l-20 -106c-14 1.33301 -26.667 2 -38 2c-28 0 -46.833 -6.33301 -56.5 -19s-17.5 -34 -23.5 -64l-18 -98h98z" />
    <glyph glyph-name="afii10023" unicode="&#x401;" horiz-adv-x="648" 
d="M603 712v-128h-379v-155h348v-123h-348v-175h386v-131h-541v712h534zM506 888v-116h-133v116h133zM297 888v-116h-133v116h133z" />
    <glyph glyph-name="afii10051" unicode="&#x402;" horiz-adv-x="778" 
d="M600 165c0 50 -10.832 88.668 -32.499 116.001s-51.834 41 -90.501 41s-68.834 -14 -90.501 -42s-32.5 -67 -32.5 -117v-163h-157v579h-184v133h575v-133h-234v-214c37.333 52 90 78 158 78c70.667 0 129.334 -25.833 176.001 -77.5s70 -118.5 70 -200.5
c0 -88 -24.667 -161.5 -74 -220.5s-109 -88.5 -179 -88.5c-34.667 0 -64 4 -88 12v122c10.667 -5.33301 29 -8 55 -8c39.333 0 70.5 15.667 93.5 47s34.5 76.666 34.5 135.999z" />
    <glyph glyph-name="afii10052" unicode="&#x403;" horiz-adv-x="574" 
d="M438 902l-149 -144h-98l89 144h158zM565 712v-133h-340v-579h-156v712h496z" />
    <glyph glyph-name="afii10053" unicode="&#x404;" horiz-adv-x="741" 
d="M463 309l-261 -0.000976562c7.33301 -60 27.333 -107.333 60 -142s74.334 -52 125.001 -52c87.333 0 140.333 45.333 159 136h156c-12 -82.667 -45 -148 -99 -196s-126.333 -72 -217 -72c-103.333 0 -186.5 34.167 -249.5 102.5s-94.5 158.833 -94.5 271.5
c0 106.667 31.833 195.334 95.5 266.001s148.5 106 254.5 106c82 0 151.167 -22.5 207.5 -67.5s89.166 -102.5 98.499 -172.5h-155c-10 34.667 -28.5 61.5 -55.5 80.5s-59.833 28.5 -98.5 28.5c-50.667 0 -91 -15.333 -121 -46s-50.333 -70.667 -61 -120h256v-123z" />
    <glyph glyph-name="afii10054" unicode="&#x405;" horiz-adv-x="649" 
d="M596 500l-148.002 -0.000976562c-6 70.667 -51 106 -135 106c-36 0 -64.167 -7.16699 -84.5 -21.5s-30.5 -34.166 -30.5 -59.499c0 -8.66699 1.33301 -16.334 4 -23.001s7.66699 -12.834 15 -18.501s14.666 -10.334 21.999 -14.001s18.166 -7.66699 32.499 -12l39 -11.5
c11.667 -3.33301 28.167 -7.66602 49.5 -12.999s40 -10.333 56 -15c70 -20 122.167 -45 156.5 -75s51.5 -73 51.5 -129c0 -40.667 -8.33301 -76.167 -25 -106.5s-39.167 -54.333 -67.5 -72s-59.333 -30.667 -93 -39s-69.5 -12.5 -107.5 -12.5
c-96.667 0 -172.167 22.167 -226.5 66.5s-81.833 106.833 -82.5 187.5h155c2.66699 -89.333 56.334 -134 161.001 -134c40.667 0 72.834 8.5 96.501 25.5s35.5 40.167 35.5 69.5c0 24.667 -10.833 42.667 -32.5 54s-67.167 27 -136.5 47c-11.333 2.66699 -20 5 -26 7
c-24 6.66699 -40.667 11.5 -50 14.5s-24.166 8.16699 -44.499 15.5s-35.166 14 -44.499 20s-20.833 14.333 -34.5 25s-23.5 21.834 -29.5 33.501s-11.5 26 -16.5 43s-7.5 35.5 -7.5 55.5c0 64.667 25 116.334 75 155.001s116.333 58 199 58c80 0 145.333 -18.833 196 -56.5
s76.667 -94.5 78 -170.5z" />
    <glyph glyph-name="afii10055" unicode="&#x406;" horiz-adv-x="295" 
d="M226 712v-712h-157v712h157z" />
    <glyph glyph-name="afii10056" unicode="&#x407;" horiz-adv-x="295" 
d="M226 712v-712h-157v712h157zM318 888v-116h-133v116h133zM109 888v-116h-133v116h133z" />
    <glyph glyph-name="afii10057" unicode="&#x408;" 
d="M498 712v-489c0 -160 -78 -240 -234 -240c-75.333 0 -133.833 19.667 -175.5 59s-62.5 98.333 -62.5 177v47h144v-22c0 -18 0.166992 -31.5 0.5 -40.5s2 -20.667 5 -35s7.5 -25 13.5 -32s14.833 -13.333 26.5 -19s26.167 -8.5 43.5 -8.5c18.667 0 33.834 3 45.501 9
s20.167 15.167 25.5 27.5s8.66602 24.5 9.99902 36.5s2 27.333 2 46v484h156z" />
    <glyph glyph-name="afii10058" unicode="&#x409;" horiz-adv-x="1054" 
d="M480 579h-171l-10 -302c-6.66699 -194 -72.667 -291 -198 -291c-34.667 0 -64 4 -88 12v126c16 -8 34.333 -12 55 -12c24.667 0 43.667 11.167 57 33.5s21 66.833 23 133.5l12 433h476v-268h141c76.667 0 138 -17.5 184 -52.5s69 -89.167 69 -162.5
c0 -76 -23.5 -133.167 -70.5 -171.5s-110.5 -57.5 -190.5 -57.5h-289v579zM878 227c0 30 -10.5 50.833 -31.5 62.5s-51.167 17.5 -90.5 17.5h-120v-174h121c80.667 0 121 31.333 121 94z" />
    <glyph glyph-name="afii10059" unicode="&#x40a;" horiz-adv-x="1054" 
d="M480 307h-255v-307h-156v712h156v-268h255v268h156v-268h141c76.667 0 138 -17.5 184 -52.5s69 -89.167 69 -162.5c0 -76 -23.5 -133.167 -70.5 -171.5s-110.5 -57.5 -190.5 -57.5h-289v307zM878 227c0 30 -10.5 50.833 -31.5 62.5s-51.167 17.5 -90.5 17.5h-120v-174
h121c80.667 0 121 31.333 121 94z" />
    <glyph glyph-name="afii10060" unicode="&#x40b;" horiz-adv-x="778" 
d="M738 0l-156.001 -0.00195312v201c0 42.667 -8.5 72.834 -25.5 90.501s-45.5 26.5 -85.5 26.5c-16.667 0 -55.667 -5.33301 -117 -16v-302h-157v579h-184v133h575v-133h-234v-151c64.667 13.333 112.334 20 143.001 20c82 0 142.667 -19.167 182 -57.5
s59 -102.166 59 -191.499v-199z" />
    <glyph glyph-name="afii10061" unicode="&#x40c;" horiz-adv-x="722" 
d="M702 712l-279 -281l305 -431h-196l-216 320l-91 -90v-230h-154v712h154v-296l280 296h197zM498 902l-149 -144h-98l89 144h158z" />
    <glyph glyph-name="afii10062" unicode="&#x40e;" horiz-adv-x="667" 
d="M461 904h55.998c0 -96 -54.333 -144 -163 -144s-163 48 -163 144h56c8.66699 -44 44.334 -66 107.001 -66s98.334 22 107.001 66zM101.998 3l-0.000976562 132.002c25.333 -10.667 50.333 -16 75 -16c22.667 0 40.334 5.83301 53.001 17.5s19 26.167 19 43.5
c0 6 -0.666992 12 -2 18s-3.33301 12.667 -6 20s-5 13.166 -7 17.499s-5.16699 10.833 -9.5 19.5l-8.5 17l-209 440h173l161 -375l158 375h167l-240 -524c-34 -74.667 -68 -126.834 -102 -156.501s-79 -44.5 -135 -44.5c-31.333 0 -60.333 5.33301 -87 16z" />
    <glyph glyph-name="afii10145" unicode="&#x40f;" horiz-adv-x="741" 
d="M446 0v-183h-151v183h-226v712h156v-579h291v579h156v-712h-226z" />
    <glyph glyph-name="afii10017" unicode="&#x410;" horiz-adv-x="685" 
d="M423 713l271 -713h-164l-56 159h-265l-58 -159h-160l271 713h161zM436 273l-94 265l-95 -265h189z" />
    <glyph glyph-name="afii10018" unicode="&#x411;" horiz-adv-x="704" 
d="M226 456h186c75.333 0 136.333 -19.167 183 -57.5s70 -94.833 70 -169.5c0 -76 -23.5 -133.167 -70.5 -171.5s-110.5 -57.5 -190.5 -57.5h-333v712h528v-129h-373v-127zM513 231c0 68 -40.667 102 -122 102h-165v-205h166c80.667 0 121 34.333 121 103z" />
    <glyph glyph-name="afii10019" unicode="&#x412;" horiz-adv-x="704" 
d="M68 712h337c66.667 0 121.167 -14.833 163.5 -44.5s63.5 -74.5 63.5 -134.5c0 -33.333 -8.66699 -62.833 -26 -88.5s-41 -45.167 -71 -58.5c86.667 -24.667 130 -82.667 130 -174c0 -67.333 -22.667 -119.5 -68 -156.5s-103 -55.5 -173 -55.5h-356v712zM220 591v-167.001
h142c78.667 0 118 27.667 118 83c0 32.667 -10.667 54.834 -32 66.501s-50 17.5 -86 17.5h-142zM220 317.999l-0.000976562 -194h157c40.667 0 72.834 6.66699 96.501 20s35.5 39 35.5 77c0 38.667 -12.5 64.5 -37.5 77.5s-59.167 19.5 -102.5 19.5h-149z" />
    <glyph glyph-name="afii10020" unicode="&#x413;" horiz-adv-x="574" 
d="M565 712v-133h-340v-579h-156v712h496z" />
    <glyph glyph-name="afii10021" unicode="&#x414;" horiz-adv-x="778" 
d="M762 -183l-151.001 -0.000976562v183h-452v-183h-151v316h54c40.667 54.667 69.834 119.834 87.501 195.501s26.5 167.5 26.5 275.5v108h507v-579h79v-316zM526.999 132.999v452h-196v-12c0 -178 -31.667 -324.667 -95 -440h291z" />
    <glyph glyph-name="afii10022" unicode="&#x415;" horiz-adv-x="648" 
d="M603 712v-128h-379v-155h348v-123h-348v-175h386v-131h-541v712h534z" />
    <glyph glyph-name="afii10024" unicode="&#x416;" horiz-adv-x="1054" 
d="M375 310l-191 -310h-193l285 421l-259 291h188l247 -291v291h150v-291l247 291h188l-259 -291l285 -421h-194l-190 310l-77 -87v-223h-150v223z" />
    <glyph glyph-name="afii10025" unicode="&#x417;" horiz-adv-x="649" 
d="M610 219c0 -68.667 -26.667 -125.002 -80 -169.002s-120 -66 -200 -66c-96.667 0 -172.167 22.167 -226.5 66.5s-81.833 106.833 -82.5 187.5h155c1.33301 -45.333 16 -79 44 -101s64.667 -33 110 -33c36 0 65.5 10.833 88.5 32.5s34.5 48.834 34.5 81.501
c0 66.667 -44.667 100 -134 100h-54v106c8 -0.666992 22 -1 42 -1c86 0 129 32.333 129 97c0 27.333 -9.66699 48.5 -29 63.5s-45.333 22.5 -78 22.5c-38.667 0 -69.667 -9.16699 -93 -27.5s-36.333 -44.5 -39 -78.5h-148c1.33301 75.333 28.333 132 81 170
s119.334 57 200.001 57c73.333 0 133.833 -18.167 181.5 -54.5s71.5 -83.833 71.5 -142.5c0 -35.333 -10 -66.166 -30 -92.499s-46 -43.166 -78 -50.499c39.333 -6 71.666 -24.333 96.999 -55s38 -68.334 38 -113.001z" />
    <glyph glyph-name="afii10026" unicode="&#x418;" horiz-adv-x="741" 
d="M672 712v-712h-156v494h-3l-268 -494h-176v712h156v-493h3l268 493h176z" />
    <glyph glyph-name="afii10027" unicode="&#x419;" horiz-adv-x="741" 
d="M672 712v-712h-156v494h-3l-268 -494h-176v712h156v-493h3l268 493h176zM478 904h55.998c0 -96 -54.333 -144 -163 -144s-163 48 -163 144h56c8.66699 -44 44.334 -66 107.001 -66s98.334 22 107.001 66z" />
    <glyph glyph-name="afii10028" unicode="&#x41a;" horiz-adv-x="722" 
d="M702 712l-279 -281l305 -431h-196l-216 320l-91 -90v-230h-154v712h154v-296l280 296h197z" />
    <glyph glyph-name="afii10029" unicode="&#x41b;" horiz-adv-x="722" 
d="M656 712v-712h-156v579h-191l-10 -302c-6.66699 -194 -72.667 -291 -198 -291c-34.667 0 -64 4 -88 12v126c16 -8 34.333 -12 55 -12c24.667 0 43.667 11.167 57 33.5s21 66.833 23 133.5l12 433h496z" />
    <glyph glyph-name="afii10030" unicode="&#x41c;" horiz-adv-x="907" 
d="M69 0v712h223l166 -489l162 489h218v-712h-147v506l-175 -506h-121l-177 501v-501h-149z" />
    <glyph glyph-name="afii10031" unicode="&#x41d;" horiz-adv-x="741" 
d="M672 712v-712h-156v307h-291v-307h-156v712h156v-268h291v268h156z" />
    <glyph glyph-name="afii10032" unicode="&#x41e;" horiz-adv-x="778" 
d="M391 729c104 0 188.167 -34.5 252.5 -103.5s96.5 -159.167 96.5 -270.5s-32.167 -201.166 -96.5 -269.499s-148.833 -102.5 -253.5 -102.5c-105.333 0 -190.333 34.167 -255 102.5s-97 158.166 -97 269.499c0 112.667 32.167 203.167 96.5 271.5
s149.833 102.5 256.5 102.5zM389 601c-58.667 0 -105.501 -22.001 -140.501 -66.001s-52.5 -103 -52.5 -177c0 -76.667 17.333 -136.667 52 -180s82.334 -65.333 143.001 -66c59.333 0 106 22 140 66s51 104 51 180c0 74.667 -17.333 133.834 -52 177.501
s-81.667 65.5 -141 65.5z" />
    <glyph glyph-name="afii10033" unicode="&#x41f;" horiz-adv-x="741" 
d="M672 712v-712h-156v579h-291v-579h-156v712h603z" />
    <glyph glyph-name="afii10034" unicode="&#x420;" horiz-adv-x="667" 
d="M70 712h307c80 0 143.5 -19.167 190.5 -57.5s70.5 -95.5 70.5 -171.5c0 -74.667 -23.333 -131.167 -70 -169.5s-107.667 -57.5 -183 -57.5h-160v-256h-155v712zM225 584v-205h139c81.333 0 122 34 122 102c0 68.667 -40.333 103 -121 103h-140z" />
    <glyph glyph-name="afii10035" unicode="&#x421;" horiz-adv-x="741" 
d="M705 275c-8 -89.333 -39.332 -160.335 -93.999 -213.002s-129.667 -79 -225 -79c-103.333 0 -186.5 34.167 -249.5 102.5s-94.5 158.833 -94.5 271.5c0 106.667 31.833 195.334 95.5 266.001s148.5 106 254.5 106c84.667 0 155.667 -24 213 -72s89 -109 95 -183h-153
c-8 39.333 -25.833 69.833 -53.5 91.5s-62.5 32.5 -104.5 32.5c-43.333 0 -79.833 -12.167 -109.5 -36.5s-50.5 -54.166 -62.5 -89.499s-18 -74 -18 -116c0 -73.333 17 -131.833 51 -175.5s79.667 -65.5 137 -65.5c95.333 0 149.666 53.333 162.999 160h155z" />
    <glyph glyph-name="afii10036" unicode="&#x422;" horiz-adv-x="611" 
d="M598 712v-133h-214v-579h-157v579h-214v133h585z" />
    <glyph glyph-name="afii10037" unicode="&#x423;" horiz-adv-x="667" 
d="M102 3l-0.000976562 132.002c25.333 -10.667 50.333 -16 75 -16c22.667 0 40.334 5.83301 53.001 17.5s19 26.167 19 43.5c0 6 -0.666992 12 -2 18s-3.33301 12.667 -6 20s-5 13.166 -7 17.499s-5.16699 10.833 -9.5 19.5l-8.5 17l-209 440h173l161 -375l158 375h167
l-240 -524c-34 -74.667 -68 -126.834 -102 -156.501s-79 -44.5 -135 -44.5c-31.333 0 -60.333 5.33301 -87 16z" />
    <glyph glyph-name="afii10038" unicode="&#x424;" horiz-adv-x="848" 
d="M810 364c0 -87.333 -28.002 -156 -84.002 -206s-131 -76.667 -225 -80v-78h-154v78c-94 3.33301 -169 30 -225 80s-84 118.667 -84 206c0 84.667 27.833 151.334 83.5 200.001s130.834 74.667 225.501 78v70h154v-70c94.667 -3.33301 169.834 -29.333 225.501 -78
s83.5 -115.334 83.5 -200.001zM659.998 364c0 50.667 -13.667 90.333 -41 119s-66.666 44 -117.999 46v-334c49.333 2 88.166 18.5 116.499 49.5s42.5 70.833 42.5 119.5zM346.998 194.999v334.001c-51.333 -2 -90.5 -17.333 -117.5 -46s-40.5 -68.334 -40.5 -119.001
c0 -48.667 14 -88.5 42 -119.5s66.667 -47.5 116 -49.5z" />
    <glyph glyph-name="afii10039" unicode="&#x425;" horiz-adv-x="667" 
d="M651 712l-229 -340l250 -372h-187l-156 247l-158 -247h-178l251 372l-232 340h182l142 -229l143 229h172z" />
    <glyph glyph-name="afii10040" unicode="&#x426;" horiz-adv-x="757" 
d="M749 -183h-151v183h-531v712h156v-579h291v579h156v-579h79v-316z" />
    <glyph glyph-name="afii10041" unicode="&#x427;" horiz-adv-x="667" 
d="M294 274c-83.333 0 -146.667 19.501 -190 58.501s-65 102.5 -65 190.5v189h156v-191c0 -42.667 8.5 -72.834 25.5 -90.501s45.5 -26.5 85.5 -26.5c32.667 0 79.667 5.33301 141 16v292h156v-712h-156v294c-64.667 -13.333 -115.667 -20 -153 -20z" />
    <glyph glyph-name="afii10042" unicode="&#x428;" horiz-adv-x="1075" 
d="M67 0v712h156v-579h237v579h156v-579h237v579h156v-712h-942z" />
    <glyph glyph-name="afii10043" unicode="&#x429;" horiz-adv-x="1092" 
d="M1088 -183h-151v183h-870v712h156v-579h237v579h156v-579h237v579h156v-579h79v-316z" />
    <glyph glyph-name="afii10044" unicode="&#x42a;" horiz-adv-x="806" 
d="M206 578h-193v134h348v-256h168c75.333 0 136.333 -19.167 183 -57.5s70 -94.833 70 -169.5c0 -76 -23.5 -133.167 -70.5 -171.5s-110.5 -57.5 -190.5 -57.5h-315v578zM630 231c0 68 -40.667 102 -122 102h-147v-205h148c80.667 0 121 34.333 121 103z" />
    <glyph glyph-name="afii10045" unicode="&#x42b;" horiz-adv-x="907" 
d="M607 229c0 -76 -23.5 -133.167 -70.5 -171.5s-110.5 -57.5 -190.5 -57.5h-277v712h155v-256h130c75.333 0 136.333 -19.167 183 -57.5s70 -94.833 70 -169.5zM455 231c0 68 -40.667 102 -122 102h-109v-205h110c80.667 0 121 34.333 121 103zM683 712h156v-712h-156v712z
" />
    <glyph glyph-name="afii10046" unicode="&#x42c;" horiz-adv-x="667" 
d="M643 229c0 -76 -23.5 -133.167 -70.5 -171.5s-110.5 -57.5 -190.5 -57.5h-315v712h155v-256h168c75.333 0 136.333 -19.167 183 -57.5s70 -94.833 70 -169.5zM491 231c0 68 -40.667 102 -122 102h-147v-205h148c80.667 0 121 34.333 121 103z" />
    <glyph glyph-name="afii10047" unicode="&#x42d;" horiz-adv-x="741" 
d="M698 357c0 -112.667 -31.5 -203.166 -94.5 -271.499s-146.167 -102.5 -249.5 -102.5c-90.667 0 -163 24 -217 72s-87 113.333 -99 196h156c18.667 -90.667 71.667 -136 159 -136c50.667 0 92.334 17.333 125.001 52s52.667 82 60 142h-261v123h256
c-10.667 49.333 -31 89.333 -61 120s-70.333 46 -121 46c-38.667 0 -71.5 -9.5 -98.5 -28.5s-45.5 -45.833 -55.5 -80.5h-155c9.33301 70 42.166 127.5 98.499 172.5s125.5 67.5 207.5 67.5c106 0 190.833 -35.333 254.5 -106s95.5 -159.334 95.5 -266.001z" />
    <glyph glyph-name="afii10048" unicode="&#x42e;" horiz-adv-x="1018" 
d="M659 729c95.333 0 172.664 -34.499 231.997 -103.499s89 -159.167 89 -270.5c0 -110.667 -29.667 -200.334 -89 -269.001s-137 -103 -233 -103c-90.667 0 -165.167 30 -223.5 90s-91.166 139.667 -98.499 239h-111v-312h-156v712h156v-273h115
c14.667 89.333 50.334 160 107.001 212s127.334 78 212.001 78zM656.998 601.001c-50.667 0 -90.832 -21.999 -120.499 -65.999s-44.5 -103 -44.5 -177c0 -76.667 14.833 -136.667 44.5 -180s70.5 -65.333 122.5 -66c50.667 0 90.5 22 119.5 66s43.5 104 43.5 180
c0 75.333 -14.833 134.666 -44.5 177.999s-69.834 65 -120.501 65z" />
    <glyph glyph-name="afii10049" unicode="&#x42f;" horiz-adv-x="722" 
d="M407 279l-208 -279h-196l221 288c-49.333 12.667 -88.833 36.5 -118.5 71.5s-44.5 79.833 -44.5 134.5c0 72 23.167 126.333 69.5 163s104.833 55 175.5 55h349v-712h-155v279h-93zM500 392l0.000976562 196.999h-155c-40 0 -71.833 -6.66699 -95.5 -20
s-35.5 -38.666 -35.5 -75.999c0 -40 12.167 -66.833 36.5 -80.5s58.166 -20.5 101.499 -20.5h148z" />
    <glyph glyph-name="afii10065" unicode="&#x430;" horiz-adv-x="574" 
d="M534 0h-144.003c-4.66699 13.333 -8 30 -10 50c-43.333 -43.333 -99 -65 -167 -65c-57.333 0 -102.333 13.833 -135 41.5s-49 65.834 -49 114.501c0 22 2.83301 41.333 8.5 58s15 30.667 28 42s25.333 20.666 37 27.999s27.834 13.333 48.501 18
s37.334 8.16699 50.001 10.5s30.334 4.83301 53.001 7.5c50 6.66699 83.5 13.667 100.5 21s25.5 21 25.5 41c0 46 -31 69 -93 69c-32.667 0 -56.667 -5.83301 -72 -17.5s-25.333 -32.167 -30 -61.5h-133c8 116 87.667 174 239 174c150 0 225 -56 225 -168v-223
c0 -65.333 6 -112 18 -140zM378.997 251c-16.667 -10 -50.001 -19.001 -100.001 -27.001c-42 -6.66699 -69.333 -15 -82 -25c-14.667 -12 -22 -29.333 -22 -52c0 -21.333 6.83301 -38.166 20.5 -50.499s32.834 -18.5 57.501 -18.5c38 0 68.5 10.167 91.5 30.5
s34.5 48.5 34.5 84.5v58z" />
    <glyph glyph-name="afii10066" unicode="&#x431;" horiz-adv-x="611" 
d="M570 252c0 -81.333 -24.167 -146.166 -72.5 -194.499s-113.833 -72.5 -196.5 -72.5c-44.667 0 -83.667 9.16699 -117 27.5s-59.333 43.166 -78 74.499s-32.5 65 -41.5 101s-13.5 74 -13.5 114c0 36 1.16699 67.833 3.5 95.5s7.5 58.667 15.5 93s19.167 63.833 33.5 88.5
s34.833 47.667 61.5 69s58 36.666 94 45.999c14 4 34.167 7.33301 60.5 10s47.333 6.16699 63 10.5s25.5 10.833 29.5 19.5h135c-3.33301 -25.333 -10.333 -47.166 -21 -65.499s-22.667 -32.666 -36 -42.999s-31 -19.166 -53 -26.499s-42 -12.333 -60 -15
s-41.333 -5.33398 -70 -8.00098c-106.667 -10 -167 -78.667 -181 -206h3c14.667 40.667 38.834 75.167 72.501 103.5s77.5 42.5 131.5 42.5c67.333 0 123.666 -24.333 168.999 -73s68 -112.334 68 -191.001zM428 253c0 50 -10.501 88.833 -31.501 116.5
s-50.167 41.5 -87.5 41.5c-35.333 0 -63.5 -14 -84.5 -42s-31.5 -67 -31.5 -117c0 -51.333 10.5 -90.833 31.5 -118.5s49.833 -41.5 86.5 -41.5s65.334 14 86.001 42s31 67.667 31 119z" />
    <glyph glyph-name="afii10067" unicode="&#x432;" horiz-adv-x="574" 
d="M52 516l296.999 -0.000976562c48.667 0 88.334 -10.833 119.001 -32.5s46 -54.167 46 -97.5c0 -49.333 -23.333 -84.666 -70 -105.999c62.667 -18 94 -60 94 -126c0 -48.667 -16.5 -86.5 -49.5 -113.5s-74.833 -40.5 -125.5 -40.5h-311v516zM191.999 308.999h94
c56 0 84 19.667 84 59c0 22.667 -7.5 38 -22.5 46s-35.5 12 -61.5 12h-94v-117zM191.999 91.999l105 0.000976562c29.333 0 52.333 4.66699 69 14s25 27.333 25 54c0 27.333 -9 45.666 -27 54.999s-42.333 14 -73 14h-99v-137z" />
    <glyph glyph-name="afii10068" unicode="&#x433;" horiz-adv-x="453" 
d="M446 407h-249v-407h-141v516h390v-109z" />
    <glyph glyph-name="afii10069" unicode="&#x434;" horiz-adv-x="628" 
d="M613 -152h-133v152h-340v-152h-133v261h62c16.667 32 31.667 78.667 45 140s20 120.333 20 177v90h412v-407h67v-261zM405 109v302h-139v-13c0 -50 -6.16699 -102.833 -18.5 -158.5s-25.5 -99.167 -39.5 -130.5h197z" />
    <glyph glyph-name="afii10070" unicode="&#x435;" horiz-adv-x="574" 
d="M539 160c-16 -55.333 -45.501 -98.332 -88.501 -128.999s-94.167 -46 -153.5 -46c-79.333 0 -143.166 24.667 -191.499 74s-72.5 114.666 -72.5 195.999c0 80 24.333 146 73 198s110.667 78 186 78c78 0 140 -26.5 186 -79.5s69 -124.833 69 -215.5v-14h-370
c0.666992 -44.667 11.5 -78.667 32.5 -102s50.5 -35 88.5 -35c50 0 85 25 105 75h136zM402.999 312.001c-3.33301 34 -14.333 61.833 -33 83.5s-44.667 32.5 -78 32.5c-31.333 0 -57.333 -10.333 -78 -31s-33 -49 -37 -85h226z" />
    <glyph glyph-name="afii10072" unicode="&#x436;" horiz-adv-x="822" 
d="M289 217l-125 -217h-167l199 320l-176 196h162l162 -205v205h134v-205l162 205h162l-179 -199l202 -317h-167l-125 217l-55 -62v-155h-134v155z" />
    <glyph glyph-name="afii10073" unicode="&#x437;" horiz-adv-x="537" 
d="M505 153c0 -54.667 -21.668 -96.333 -65.001 -125s-102 -43 -176 -43c-70 0 -127.667 15 -173 45s-68.333 76 -69 138h135c5.33301 -57.333 42 -86 110 -86c30.667 0 53.667 6.33301 69 19s23 29.334 23 50.001c0 48 -29.667 72 -89 72h-55v89h37c32 0 56.333 5 73 15
s25 27.333 25 52c0 16.667 -7 30.5 -21 41.5s-34 16.5 -60 16.5c-30 0 -52.833 -5.33301 -68.5 -16s-25.5 -29 -29.5 -55h-132c2 56 25 97.5 69 124.5s98.667 40.5 164 40.5c144 0 216 -46.333 216 -139c0 -28 -9.66699 -53 -29 -75s-40.666 -35 -63.999 -39v-2
c30.667 -4 56.667 -15.333 78 -34s32 -48.334 32 -89.001z" />
    <glyph glyph-name="afii10074" unicode="&#x438;" horiz-adv-x="593" 
d="M537 0h-136v349l-184 -349h-161v516h136v-349l184 349h161v-516z" />
    <glyph glyph-name="afii10075" unicode="&#x439;" horiz-adv-x="593" 
d="M403 712h55.998c0 -96 -54.333 -144 -163 -144s-163 48 -163 144h56c8.66699 -44 44.334 -66 107.001 -66s98.334 22 107.001 66zM536.998 0h-136v349l-184 -349h-161v516h136v-349l184 349h161v-516z" />
    <glyph glyph-name="afii10076" unicode="&#x43a;" horiz-adv-x="574" 
d="M581 0h-172l-149 222l-63 -64v-158h-139v516h139v-204l189 204h167l-200 -200z" />
    <glyph glyph-name="afii10077" unicode="&#x43b;" horiz-adv-x="593" 
d="M534 0l-140.999 0.000976562v407h-136l-6 -182c-0.666992 -20 -1.33398 -35.833 -2.00098 -47.5s-2.5 -27.167 -5.5 -46.5s-6.5 -34.833 -10.5 -46.5s-10.167 -24.667 -18.5 -39s-18 -25.333 -29 -33s-25.167 -14.334 -42.5 -20.001s-36.666 -8.5 -57.999 -8.5
c-34.667 0 -60.334 3.33301 -77.001 10v113c16.667 -3.33301 30 -5 40 -5c40.667 0 62 35.667 64 107l8 307h414v-516z" />
    <glyph glyph-name="afii10078" unicode="&#x43c;" horiz-adv-x="722" 
d="M666 0h-134v392h-3l-101 -392h-134l-101 392h-3v-392h-134v516h206l97 -375h4l97 375h206v-516z" />
    <glyph glyph-name="afii10079" unicode="&#x43d;" horiz-adv-x="593" 
d="M537 0h-141v217h-199v-217h-141v516h141v-187h199v187h141v-516z" />
    <glyph glyph-name="afii10080" unicode="&#x43e;" horiz-adv-x="611" 
d="M572 258c0 -82.667 -24.165 -149 -72.498 -199s-112.833 -75 -193.5 -75s-145.334 25 -194.001 75s-73 116.333 -73 199c0 82 24.667 148 74 198s114.333 75 195 75c79.333 0 143.166 -25 191.499 -75s72.5 -116 72.5 -198zM430.002 259
c0 51.333 -11.168 91.498 -33.501 120.498s-53.166 43.5 -92.499 43.5c-38 0 -68 -14.667 -90 -44s-33 -69.666 -33 -120.999c0 -52.667 11 -93.667 33 -123s52.667 -44 92 -44s69.833 14.833 91.5 44.5s32.5 70.834 32.5 123.501z" />
    <glyph glyph-name="afii10081" unicode="&#x43f;" horiz-adv-x="593" 
d="M537 0h-141v407h-199v-407h-141v516h481v-516z" />
    <glyph glyph-name="afii10082" unicode="&#x440;" horiz-adv-x="611" 
d="M188 516l0.000976562 -64c37.333 52 90.666 78 159.999 78s125 -25 167 -75s63 -116.667 63 -200c0 -80.667 -20.5 -145.5 -61.5 -194.5s-95.167 -73.5 -162.5 -73.5c-69.333 0 -122.333 25.667 -159 77v-247h-141v699h134zM313.001 416c-38.667 0 -68.833 -14 -90.5 -42
s-32.5 -67 -32.5 -117s11 -89 33 -117s52.333 -42 91 -42c38 0 67.833 14 89.5 42s32.5 66.333 32.5 115c0 50 -11 89.333 -33 118s-52 43 -90 43z" />
    <glyph glyph-name="afii10083" unicode="&#x441;" horiz-adv-x="574" 
d="M546 199c-8.66699 -66.667 -34.8311 -118.668 -78.498 -156.001s-99.834 -56 -168.501 -56c-79.333 0 -143 24.333 -191 73s-72 113.334 -72 194.001c0 83.333 24.167 150.333 72.5 201s112.5 76 192.5 76c68.667 0 124.667 -17.5 168 -52.5s68 -82.5 74 -142.5h-139
c-10.667 59.333 -44.667 89 -102 89c-38.667 0 -68.834 -14.833 -90.501 -44.5s-32.5 -70.834 -32.5 -123.501c0 -51.333 10.5 -91.166 31.5 -119.499s50.5 -42.5 88.5 -42.5c62 0 98.667 34.667 110 104h137z" />
    <glyph glyph-name="afii10084" unicode="&#x442;" horiz-adv-x="500" 
d="M491 407h-170v-407h-141v407h-170v109h481v-109z" />
    <glyph glyph-name="afii10085" unicode="&#x443;" horiz-adv-x="519" 
d="M523 516l-190.001 -514.002c-9.33301 -26 -16.166 -44.167 -20.499 -54.5s-11 -24.833 -20 -43.5s-17.333 -31.667 -25 -39s-18 -15.666 -31 -24.999s-27.667 -15.666 -44 -18.999s-35.166 -5 -56.499 -5c-17.333 0 -49 0.333008 -95 1v117h69
c23.333 0 41.166 6 53.499 18s18.5 29 18.5 51c0 5.33301 -1.33301 12 -4 20l-187 493h153l118 -351l114 351h147z" />
    <glyph glyph-name="afii10086" unicode="&#x444;" horiz-adv-x="846" 
d="M810 266c0 -80.667 -16.6689 -147.5 -50.002 -200.5s-85.666 -79.5 -156.999 -79.5c-20.667 0 -41 4.66699 -61 14s-35.333 20.666 -46 33.999h-3v-217h-140v217h-3c-10.667 -13.333 -26 -24.666 -46 -33.999s-40.333 -14 -61 -14c-71.333 0 -123.666 26.5 -156.999 79.5
s-50 119.833 -50 200.5c0 81.333 18 145.833 54 193.5s84.667 71.5 146 71.5c28 0 52 -5 72 -15s34 -22.667 42 -38h3v234h140v-234h3c8 15.333 22 28 42 38s44 15 72 15c61.333 0 110 -23.833 146 -71.5s54 -112.167 54 -193.5zM669.998 263c0 106 -32.001 159 -96.001 159
c-17.333 0 -33.666 -4.5 -48.999 -13.5s-26 -22.833 -32 -41.5v-222c2.66699 -13.333 11.167 -25 25.5 -35s31.5 -15 51.5 -15c66.667 0 100 56 100 168zM352.997 145l-0.000976562 222c-6 18.667 -16.667 32.5 -32 41.5s-31.666 13.5 -48.999 13.5c-64 0 -96 -53 -96 -159
c0 -112 33.333 -168 100 -168c20 0 37.167 5 51.5 15s22.833 21.667 25.5 35z" />
    <glyph glyph-name="afii10087" unicode="&#x445;" horiz-adv-x="537" 
d="M517 516l-170 -241l191 -275h-162l-109 167l-108 -167h-161l188 272l-171 244h162l92 -138l91 138h157z" />
    <glyph glyph-name="afii10088" unicode="&#x446;" horiz-adv-x="603" 
d="M591 -152h-133v152h-405v516h141v-407h191v407h141v-407h65v-261z" />
    <glyph glyph-name="afii10089" unicode="&#x447;" horiz-adv-x="574" 
d="M378 302v214h141v-516h-141v203c-61.333 -15.333 -116.333 -23 -165 -23c-56 0 -98.833 15.833 -128.5 47.5s-44.5 75.5 -44.5 131.5v157h141v-128c0 -38 5.5 -64.333 16.5 -79s31.833 -22 62.5 -22c42 0 81.333 5 118 15z" />
    <glyph glyph-name="afii10090" unicode="&#x448;" horiz-adv-x="843" 
d="M787 0h-731v516h141v-407h154v407h141v-407h154v407h141v-516z" />
    <glyph glyph-name="afii10091" unicode="&#x449;" horiz-adv-x="855" 
d="M53 0v516h141v-407h151v407h141v-407h151v407h141v-407h65v-261h-133v152h-657z" />
    <glyph glyph-name="afii10092" unicode="&#x44a;" horiz-adv-x="648" 
d="M162 407h-154v109h294v-177h137c54.667 0 99.834 -14.667 135.501 -44s53.5 -71 53.5 -125c0 -55.333 -17.833 -97.5 -53.5 -126.5s-82.834 -43.5 -141.501 -43.5h-271v407zM302 243v-145h97c57.333 0 86 24 86 72c0 24 -8 42.167 -24 54.5s-37 18.5 -63 18.5h-96z" />
    <glyph glyph-name="afii10093" unicode="&#x44b;" horiz-adv-x="741" 
d="M553 516h141v-516h-141v516zM488 170c0 -55.333 -17.833 -97.5 -53.5 -126.5s-82.834 -43.5 -141.501 -43.5h-246v516h140v-177h112c54.667 0 99.834 -14.667 135.501 -44s53.5 -71 53.5 -125zM187 243v-145h72c57.333 0 86 24 86 72c0 24 -8 42.167 -24 54.5
s-37 18.5 -63 18.5h-71z" />
    <glyph glyph-name="afii10094" unicode="&#x44c;" horiz-adv-x="537" 
d="M517 170c0 -55.333 -17.833 -97.5 -53.5 -126.5s-82.834 -43.5 -141.501 -43.5h-271v516h140v-177h137c54.667 0 99.834 -14.667 135.501 -44s53.5 -71 53.5 -125zM191 243v-145h97c57.333 0 86 24 86 72c0 24 -8 42.167 -24 54.5s-37 18.5 -63 18.5h-96z" />
    <glyph glyph-name="afii10095" unicode="&#x44d;" horiz-adv-x="574" 
d="M538 254c0 -80.667 -24.001 -145.334 -72.001 -194.001s-111.667 -73 -191 -73c-64.667 0 -118.334 16.667 -161.001 50s-70 80.333 -82 141h138c15.333 -55.333 50.333 -83 105 -83c33.333 0 60.166 11 80.499 33s32.833 53.333 37.5 94h-166v90h163
c-6.66699 36 -20.167 63.833 -40.5 83.5s-46.166 29.5 -77.499 29.5c-53.333 0 -86.333 -25.667 -99 -77h-141c8.66699 56.667 34.334 101.334 77.001 134.001s97.334 49 164.001 49c80 0 144.167 -25.333 192.5 -76s72.5 -117.667 72.5 -201z" />
    <glyph glyph-name="afii10096" unicode="&#x44e;" horiz-adv-x="836" 
d="M296 220l-99.002 0.000976562v-220h-141v516h141v-196h102c10.667 65.333 37.834 116.833 81.501 154.5s99.5 56.5 167.5 56.5c76.667 0 137.334 -24.833 182.001 -74.5s67 -115.834 67 -198.501c0 -83.333 -22.5 -149.833 -67.5 -199.5s-106.167 -74.5 -183.5 -74.5
c-72 0 -130 21.167 -174 63.5s-69.333 99.833 -76 172.5zM654.998 259.001c0 52 -9.66797 92.334 -29.001 121.001s-46.666 43 -81.999 43c-34 0 -60.5 -14.5 -79.5 -43.5s-28.5 -69.5 -28.5 -121.5c0 -53.333 9.5 -94.5 28.5 -123.5s46.167 -43.5 81.5 -43.5
c34.667 0 61.5 14.667 80.5 44s28.5 70.666 28.5 123.999z" />
    <glyph glyph-name="afii10097" unicode="&#x44f;" horiz-adv-x="574" 
d="M517 0l-141 0.000976562v191h-60l-148 -191h-174l171 203c-38 6 -69.333 23.167 -94 51.5s-37 63.166 -37 104.499c0 45.333 16 82.833 48 112.5s73 44.5 123 44.5h312v-516zM376 293.001v121.001h-113c-31.333 0 -53.333 -4.83301 -66 -14.5s-19 -24.834 -19 -45.501
c0 -21.333 6.16699 -36.833 18.5 -46.5s34.5 -14.5 66.5 -14.5h113z" />
    <glyph glyph-name="afii10071" unicode="&#x451;" horiz-adv-x="574" 
d="M459 712v-116h-133v116h133zM249 712v-116h-133v116h133zM539 160c-16 -55.333 -45.501 -98.332 -88.501 -128.999s-94.167 -46 -153.5 -46c-79.333 0 -143.166 24.667 -191.499 74s-72.5 114.666 -72.5 195.999c0 80 24.333 146 73 198s110.667 78 186 78
c78 0 140 -26.5 186 -79.5s69 -124.833 69 -215.5v-14h-370c0.666992 -44.667 11.5 -78.667 32.5 -102s50.5 -35 88.5 -35c50 0 85 25 105 75h136zM402.999 312.001c-3.33301 34 -14.333 61.833 -33 83.5s-44.667 32.5 -78 32.5c-31.333 0 -57.333 -10.333 -78 -31
s-33 -49 -37 -85h226z" />
    <glyph glyph-name="afii10099" unicode="&#x452;" horiz-adv-x="574" 
d="M539 86c0 -175.333 -97.332 -266.668 -291.999 -274.001v114c52 6 90 20.833 114 44.5s36 65.167 36 124.5v69c0 35.333 -6.33301 62.333 -19 81s-36.667 28 -72 28c-42.667 0 -71.834 -13.667 -87.501 -41s-23.5 -63.666 -23.5 -108.999v-123h-140v435h-54v96h54v181
h140v-181h248v-96h-248v-128c40.667 54.667 95 82 163 82c120.667 0 181 -63.667 181 -191v-112z" />
    <glyph glyph-name="afii10100" unicode="&#x453;" horiz-adv-x="453" 
d="M446 407h-249v-407h-141v516h390v-109zM392 724l-149 -143h-99l90 143h158z" />
    <glyph glyph-name="afii10101" unicode="&#x454;" horiz-adv-x="574" 
d="M542 178c-12 -60.667 -39.334 -107.667 -82.001 -141s-96.334 -50 -161.001 -50c-79.333 0 -143 24.333 -191 73s-72 113.334 -72 194.001c0 83.333 24.167 150.333 72.5 201s112.5 76 192.5 76c66.667 0 121.334 -16.333 164.001 -49s68.334 -77.334 77.001 -134.001
h-141c-12.667 51.333 -45.667 77 -99 77c-31.333 0 -57.166 -9.83301 -77.499 -29.5s-33.833 -47.5 -40.5 -83.5h163v-90h-166c4.66699 -40.667 17.167 -72 37.5 -94s47.166 -33 80.499 -33c54.667 0 89.667 27.667 105 83h138z" />
    <glyph glyph-name="afii10102" unicode="&#x455;" horiz-adv-x="537" 
d="M490 366h-132.003c-4 26 -13.833 44.333 -29.5 55s-38.5 16 -68.5 16c-25.333 0 -45 -4.5 -59 -13.5s-21 -21.5 -21 -37.5c0 -18.667 8 -31.667 24 -39s44.667 -15.333 86 -24c7.33301 -1.33301 12.666 -2.33301 15.999 -3c24 -4.66699 43.167 -8.83398 57.5 -12.501
s31.833 -9.66699 52.5 -18s36.667 -17.666 48 -27.999s21.333 -24.166 30 -41.499s13 -37.333 13 -60c0 -54 -21 -96.667 -63 -128s-99.667 -47 -173 -47c-70 0 -127.667 15 -173 45s-68.333 76 -69 138h135c4.66699 -57.333 41.334 -86 110.001 -86
c28.667 0 51.5 5.83301 68.5 17.5s25.5 27.167 25.5 46.5s-7.66699 33 -23 41s-43.666 16.667 -84.999 26c-3.33301 0.666992 -6 1.33398 -8 2.00098c-4.66699 1.33301 -15 3.66602 -31 6.99902s-27.167 5.83301 -33.5 7.5l-31 8.5c-14.333 4 -24.833 7.83301 -31.5 11.5
l-26.5 14c-11 5.66699 -19.167 11.834 -24.5 18.501s-11.166 14.5 -17.499 23.5s-10.666 19.167 -12.999 30.5s-3.5 23.666 -3.5 36.999c0 50.667 19.667 89.667 59 117s95 41 167 41c64.667 0 117.667 -13.333 159 -40s63 -68.334 65 -125.001z" />
    <glyph glyph-name="afii10103" unicode="&#x456;" horiz-adv-x="258" 
d="M200 712v-120h-142v120h142zM200 516v-516h-142v516h142z" />
    <glyph glyph-name="afii10104" unicode="&#x457;" horiz-adv-x="258" 
d="M200 516v-516h-142v516h142zM299 712v-116h-133v116h133zM90 712v-116h-133v116h133z" />
    <glyph glyph-name="afii10105" unicode="&#x458;" horiz-adv-x="278" 
d="M210 516v-516.998c0 -68 -12.167 -116 -36.5 -144s-69.5 -42 -135.5 -42c-18.667 0 -37.667 0.666992 -57 2v114c8 -0.666992 16.667 -1 26 -1c14.667 0 26.167 1.33301 34.5 4s14.5 7.66699 18.5 15s6.33301 14.666 7 21.999s1 18.666 1 33.999v513h142zM210 712.002
v-122h-142v122h142z" />
    <glyph glyph-name="afii10106" unicode="&#x459;" horiz-adv-x="822" 
d="M803 165c0 -54.667 -17.832 -95.832 -53.499 -123.499s-82.834 -41.5 -141.501 -41.5h-237v407h-117l-6 -182c-0.666992 -20 -1.33398 -35.833 -2.00098 -47.5s-2.5 -27.167 -5.5 -46.5s-6.5 -34.833 -10.5 -46.5s-10.167 -24.667 -18.5 -39s-18 -25.333 -29 -33
s-25.167 -14.334 -42.5 -20.001s-36.666 -8.5 -57.999 -8.5c-34.667 0 -60.334 3.33301 -77.001 10v113c16.667 -3.33301 30 -5 40 -5c40.667 0 62 35.667 64 107l8 307h395v-187h102c54.667 0 99.834 -14 135.501 -42s53.5 -68.667 53.5 -122zM660.001 165.002
c0 42.667 -29.001 64 -87.001 64h-61v-128h61c28.667 0 50.334 4.66699 65.001 14s22 26 22 50z" />
    <glyph glyph-name="afii10107" unicode="&#x45a;" horiz-adv-x="822" 
d="M366 229l-169 0.000976562v-229h-141v516h141v-187h169v187h141v-187h107c54.667 0 99.834 -14 135.501 -42s53.5 -68.667 53.5 -122c0 -54.667 -17.833 -95.834 -53.5 -123.501s-82.834 -41.5 -141.501 -41.5h-242v229zM507 229.001l-0.000976562 -128h66
c28.667 0 50.334 4.66699 65.001 14s22 26 22 50c0 42.667 -29 64 -87 64h-66z" />
    <glyph glyph-name="afii10108" unicode="&#x45b;" horiz-adv-x="574" 
d="M539 0l-141.999 -0.000976562v164c0 35.333 -6.33301 62.333 -19 81s-36.667 28 -72 28c-42.667 0 -71.834 -13.667 -87.501 -41s-23.5 -63.666 -23.5 -108.999v-123h-140v435h-53v96h53v181h140v-181h249v-96h-249v-128c40.667 54.667 95 82 163 82
c120.667 0 181 -63.667 181 -191v-198z" />
    <glyph glyph-name="afii10109" unicode="&#x45c;" horiz-adv-x="574" 
d="M472 724l-149 -143h-99l90 143h158zM581 0h-172l-149 219l-63 -64v-155h-139v516h139v-204l189 204h167l-197 -199z" />
    <glyph glyph-name="afii10110" unicode="&#x45e;" horiz-adv-x="519" 
d="M374 712h55.998c0 -96 -54.333 -144 -163 -144s-163 48 -163 144h56c8.66699 -44 44.334 -66 107.001 -66s98.334 22 107.001 66zM522.998 516l-190.001 -514.002c-9.33301 -26 -16.166 -44.167 -20.499 -54.5s-11 -24.833 -20 -43.5s-17.333 -31.667 -25 -39
s-18 -15.666 -31 -24.999s-27.667 -15.666 -44 -18.999s-35.166 -5 -56.499 -5c-17.333 0 -49 0.333008 -95 1v117h69c23.333 0 41.166 6 53.499 18s18.5 29 18.5 51c0 5.33301 -1.33301 12 -4 20l-187 493h153l118 -351l114 351h147z" />
    <glyph glyph-name="afii10193" unicode="&#x45f;" horiz-adv-x="593" 
d="M537 0h-173v-152h-134v152h-174v516h141v-407h199v407h141v-516z" />
    <glyph glyph-name="afii10050" unicode="&#x490;" horiz-adv-x="574" 
d="M566 871v-292h-341v-579h-156v712h346v159h151z" />
    <glyph glyph-name="afii10098" unicode="&#x491;" horiz-adv-x="453" 
d="M446 658v-251h-249v-407h-141v516h256v142h134z" />
    <glyph glyph-name="endash" unicode="&#x2013;" horiz-adv-x="500" 
d="M500 335v-126h-500v126h500z" />
    <glyph glyph-name="emdash" unicode="&#x2014;" horiz-adv-x="1000" 
d="M1000 335v-126h-1000v126h1000z" />
    <glyph glyph-name="quoteleft" unicode="&#x2018;" horiz-adv-x="278" 
d="M218 390l-158 0.00195312v122c0 57.333 11.833 102.666 35.5 135.999s64.5 54.666 122.5 63.999v-70c-45.333 -12.667 -69 -44.667 -71 -96h71v-156z" />
    <glyph glyph-name="quoteright" unicode="&#x2019;" horiz-adv-x="278" 
d="M218 590c0 -57.333 -11.833 -102.668 -35.5 -136.001s-64.5 -54.666 -122.5 -63.999v70c45.333 12.667 69 44.667 71 96h-71v156h158v-122z" />
    <glyph glyph-name="quotesinglbase" unicode="&#x201a;" horiz-adv-x="278" 
d="M218 156v-122.002c0 -57.333 -11.833 -102.666 -35.5 -135.999s-64.5 -54.666 -122.5 -63.999v70c45.333 12.667 69 44.667 71 96h-71v156h158z" />
    <glyph glyph-name="quotedblleft" unicode="&#x201c;" horiz-adv-x="463" 
d="M408 395h-143v125c0 50.667 11.833 93.334 35.5 128.001s59.5 56 107.5 64v-66c-42.667 -12.667 -65 -45.334 -67 -98.001h67v-153zM196 395h-143v125c0 50.667 11.833 93.334 35.5 128.001s59.5 56 107.5 64v-66c-42.667 -12.667 -65 -45.334 -67 -98.001h67v-153z" />
    <glyph glyph-name="quotedblright" unicode="&#x201d;" horiz-adv-x="463" 
d="M410 712v-125c0 -50.667 -11.833 -93.334 -35.5 -128.001s-59.5 -56 -107.5 -64v66c42.667 12.667 65 45.334 67 98.001h-67v153h143zM198 712v-125c0 -50.667 -11.833 -93.334 -35.5 -128.001s-59.5 -56 -107.5 -64v66c42.667 12.667 65 45.334 67 98.001h-67v153h143z
" />
    <glyph glyph-name="quotedblbase" unicode="&#x201e;" horiz-adv-x="463" 
d="M409 154v-125c0 -50.667 -11.833 -93.334 -35.5 -128.001s-59.5 -56 -107.5 -64v66c42.667 12.667 65 45.334 67 98.001h-67v153h143zM197 154v-125c0 -50.667 -11.833 -93.334 -35.5 -128.001s-59.5 -56 -107.5 -64v66c42.667 12.667 65 45.334 67 98.001h-67v153h143z
" />
    <glyph glyph-name="dagger" unicode="&#x2020;" 
d="M532 517v-122h-186v-559h-138v559h-184v122h184v195h138v-195h186z" />
    <glyph glyph-name="daggerdbl" unicode="&#x2021;" 
d="M532 522v-118h-186v-260h186v-118h-186v-190h-137v190h-185v118h185v260h-185v118h185v190h137v-190h186z" />
    <glyph glyph-name="bullet" unicode="&#x2022;" horiz-adv-x="501" 
d="M251 534c48.667 0 90.5 -17.333 125.5 -52s52.5 -76.667 52.5 -126s-17.5 -91.333 -52.5 -126s-76.833 -52 -125.5 -52c-49.333 0 -91.333 17.333 -126 52s-52 76.667 -52 126s17.333 91.333 52 126s76.667 52 126 52z" />
    <glyph glyph-name="ellipsis" unicode="&#x2026;" horiz-adv-x="1000" 
d="M100 0v134h133v-134h-133zM433 0v134h133v-134h-133zM766 0v134h133v-134h-133z" />
    <glyph glyph-name="perthousand" unicode="&#x2030;" horiz-adv-x="1147" 
d="M656 720l-438 -748h-86l440 748h84zM587 329c45.333 0 80.5 -14.5 105.5 -43.5s37.5 -69.833 37.5 -122.5c0 -57.333 -12.333 -101 -37 -131s-60.667 -45 -108 -45s-83.5 14.5 -108.5 43.5s-37.5 70.833 -37.5 125.5c0 56.667 12.667 99.667 38 129s62 44 110 44z
M933 330c46 0 81.499 -14.668 106.499 -44.001s37.5 -70.666 37.5 -123.999c0 -56.667 -12.5 -100 -37.5 -130s-60.833 -45 -107.5 -45c-47.333 0 -83.666 14.5 -108.999 43.5s-38 70.833 -38 125.5c0 56 12.833 99 38.5 129s62.167 45 109.5 45zM215.999 704.999
c96.667 0 145.002 -57.333 145.002 -172c0 -54 -12.833 -96 -38.5 -126s-61.834 -45 -108.501 -45s-82.334 14.667 -107.001 44s-37 71.333 -37 126c0 55.333 12.667 98 38 128s61.333 45 108 45zM585.001 263.999c-38 0 -57 -35.334 -57 -106.001
c0 -37.333 4.5 -64.166 13.5 -80.499s23.833 -24.5 44.5 -24.5c36 0 54 36.333 54 109c0 68 -18.333 102 -55 102zM931.001 264.998c-38 0 -57 -36 -57 -108c0 -69.333 19.333 -104 58 -104c36.667 0 55 36 55 108c0 69.333 -18.667 104 -56 104zM214.001 639.998
c-36.667 0 -55 -37.333 -55 -112c0 -66.667 18.667 -100 56 -100c36.667 0 55 36 55 108c0 69.333 -18.667 104 -56 104z" />
    <glyph glyph-name="guilsinglleft" unicode="&#x2039;" horiz-adv-x="241" 
d="M193 453v-119l-89 -69l89 -70v-121l-156 125v132z" />
    <glyph glyph-name="guilsinglright" unicode="&#x203a;" horiz-adv-x="241" 
d="M47 455l157 -124v-134l-157 -121v117l89 71l-89 70v121z" />
    <glyph glyph-name="afii61352" unicode="&#x2116;" horiz-adv-x="1046" 
d="M844 452c48.667 0 87.834 -14.6689 117.501 -44.002s44.5 -68.333 44.5 -117c0 -49.333 -14.833 -88.666 -44.5 -117.999s-69.167 -44 -118.5 -44s-89 14.833 -119 44.5s-45 68.834 -45 117.501s15.167 87.667 45.5 117s70.166 44 119.499 44zM69 -0.00195312v694h159
l243 -439v439h150v-694h-156l-245 440v-440h-151zM999 97.998v-98h-301v98h301zM778 290.998c0 -58.667 21.667 -88 65 -88c20 0 35.833 7.5 47.5 22.5s17.5 36.833 17.5 65.5c0 28 -6 49.5 -18 64.5s-28 22.5 -48 22.5c-19.333 0 -34.833 -7.5 -46.5 -22.5
s-17.5 -36.5 -17.5 -64.5z" />
    <glyph glyph-name="trademark" unicode="&#x2122;" horiz-adv-x="1000" 
d="M216 356v288h-109v68h300v-68h-107v-288h-84zM454 356v356h120l87 -245l87 245h118v-356h-77v290l-101 -290h-56l-101 290v-290h-77z" />
    <glyph glyph-name="Delta" unicode="&#x2206;" horiz-adv-x="682" 
d="M390 694l284 -694h-665l272 694h109zM334 553l-168 -449h346z" />
    <glyph glyph-name="radical" unicode="&#x221a;" horiz-adv-x="600" 
d="M583 786l-212 -1000h-131l-154 319l-49 -23l-40 85l158 65l132 -281l171 835h125z" />
    <glyph glyph-name="infinity" unicode="&#x221e;" horiz-adv-x="806" 
d="M761 262c0 -52.667 -15.1699 -95.5 -45.5029 -128.5s-70.166 -49.5 -119.499 -49.5c-20 0 -39 2.83301 -57 8.5s-35.5 14.667 -52.5 27s-30.833 23.5 -41.5 33.5s-24.667 24 -42 42l-34.5 -34.5c-4.33301 -4.33301 -14.666 -13.5 -30.999 -27.5s-29.333 -23 -39 -27
s-22.5 -8.5 -38.5 -13.5s-32.333 -7.5 -49 -7.5c-49.333 0 -89.5 16.167 -120.5 48.5s-46.5 74.5 -46.5 126.5s15.167 94.333 45.5 127s69.833 49 118.5 49c38.667 0 72.834 -10.333 102.501 -31s60.5 -49.667 92.5 -87c22.667 25.333 41.167 45 55.5 59
s34.166 27.5 59.499 40.5s51.333 19.5 78 19.5c48.667 0 88.334 -16.333 119.001 -49s46 -74.667 46 -126zM666.997 259c0 23.333 -6.66797 42.167 -20.001 56.5s-30.666 21.5 -51.999 21.5c-32 0 -74 -26.667 -126 -80c16 -15.333 29.167 -27.333 39.5 -36
s23.833 -17.167 40.5 -25.5s32.667 -12.5 48 -12.5c21.333 0 38.333 7 51 21s19 32.333 19 55zM336.996 258.001c-53.333 52 -96.334 78.001 -129.001 78.001c-20 0 -36.667 -7.16699 -50 -21.5s-20 -32.833 -20 -55.5s6.66699 -40.834 20 -54.501s31 -20.5 53 -20.5
c20.667 0 42.334 7.16699 65.001 21.5s43 31.833 61 52.5z" />
    <glyph glyph-name="approxequal" unicode="&#x2248;" horiz-adv-x="600" 
d="M419 70c-14 0 -31.3311 2.33105 -51.998 6.99805s-37.834 9.33398 -51.501 14.001l-59 21c-25.667 9.33301 -41.834 15 -48.501 17c-20 6.66699 -35 10 -45 10c-32 0 -52.667 -23.333 -62 -70h-75c4 48.667 17.833 90.167 41.5 124.5s59.167 51.5 106.5 51.5
c10.667 0 22.5 -1.33301 35.5 -4s23.5 -5.16699 31.5 -7.5s19.833 -6.16602 35.5 -11.499s26.167 -9 31.5 -11c66 -22 108 -33 126 -33c32.667 0 53 22.333 61 67h75c-12 -116.667 -62.333 -175 -151 -175zM421.002 272.998c-14 0 -31.3311 2.33105 -51.998 6.99805
s-37.834 9.33398 -51.501 14.001l-59 21c-25.667 9.33301 -41.834 15 -48.501 17c-20 6.66699 -35 10 -45 10c-32 0 -52.667 -23.333 -62 -70h-75c4 48.667 17.833 90.167 41.5 124.5s59.167 51.5 106.5 51.5c10.667 0 22.5 -1.33301 35.5 -4s23.5 -5.16699 31.5 -7.5
s19.833 -6.16602 35.5 -11.499s26.167 -9 31.5 -11c66 -22 108 -33 126 -33c32.667 0 53 22.333 61 67h75c-12 -116.667 -62.333 -175 -151 -175z" />
    <glyph glyph-name="notequal" unicode="&#x2260;" horiz-adv-x="600" 
d="M502 530l-56 -110h114v-112h-171l-50 -97h221v-112h-278l-82 -163l-104 52l57 111h-113v112h170l49 97h-219v112h276l82 162z" />
    <glyph glyph-name="lessequal" unicode="&#x2264;" horiz-adv-x="600" 
d="M40 273v102l519 179v-117l-361 -113l361 -107v-117zM40 76h519v-111h-519v111z" />
    <glyph glyph-name="greaterequal" unicode="&#x2265;" horiz-adv-x="600" 
d="M559 273l-519 -173v117l360 107l-360 113v117l519 -179v-102zM559 76v-111h-519v111h519z" />
    <glyph glyph-name="hyphenminus" unicode="&#xe000;" horiz-adv-x="407" 
d="M354 336v-127h-301v127h301z" />
    <glyph glyph-name="nbspace" unicode="&#xe001;" horiz-adv-x="278" 
 />
    <glyph glyph-name=".null" horiz-adv-x="0" 
 />
    <glyph glyph-name="nonmarkingreturn" horiz-adv-x="333" 
 />
    </font>
</defs>
</svg>
